<svg xmlns="http://www.w3.org/2000/svg" viewBox="0 0 558.0 658" width="558.0" height="658" preserveAspectRatio="xMinYMin meet" font-family="ui-monospace, SFMono-Regular, Menlo, monospace" font-size="11">
  <rect x="0" y="0" width="558.0" height="658" fill="#0b1220" />
  <text x="120" y="20" font-size="15" font-weight="600" fill="#f8fafc">Layer 0: sliding_attention</text>
  <text x="120" y="40" fill="#94a3b8">shape=[16, 16]   keys →   queries ↓</text>
  <text x="132.0" y="110" text-anchor="middle" fill="#94a3b8" font-size="10">0</text>
  <text x="132.0" y="172" text-anchor="start" transform="rotate(-90 132.0 172)" fill="#f8fafc" font-size="12" font-style="italic">The</text>
  <text x="158.0" y="110" text-anchor="middle" fill="#94a3b8" font-size="10">1</text>
  <text x="158.0" y="172" text-anchor="start" transform="rotate(-90 158.0 172)" fill="#f8fafc" font-size="12" font-style="italic">quick</text>
  <text x="184.0" y="110" text-anchor="middle" fill="#94a3b8" font-size="10">2</text>
  <text x="184.0" y="172" text-anchor="start" transform="rotate(-90 184.0 172)" fill="#f8fafc" font-size="12" font-style="italic">brown</text>
  <text x="210.0" y="110" text-anchor="middle" fill="#94a3b8" font-size="10">3</text>
  <text x="210.0" y="172" text-anchor="start" transform="rotate(-90 210.0 172)" fill="#f8fafc" font-size="12" font-style="italic">fox</text>
  <text x="236.0" y="110" text-anchor="middle" fill="#94a3b8" font-size="10">4</text>
  <text x="236.0" y="172" text-anchor="start" transform="rotate(-90 236.0 172)" fill="#f8fafc" font-size="12" font-style="italic">jumps</text>
  <text x="262.0" y="110" text-anchor="middle" fill="#94a3b8" font-size="10">5</text>
  <text x="262.0" y="172" text-anchor="start" transform="rotate(-90 262.0 172)" fill="#f8fafc" font-size="12" font-style="italic">over</text>
  <text x="288.0" y="110" text-anchor="middle" fill="#94a3b8" font-size="10">6</text>
  <text x="288.0" y="172" text-anchor="start" transform="rotate(-90 288.0 172)" fill="#f8fafc" font-size="12" font-style="italic">the</text>
  <text x="314.0" y="110" text-anchor="middle" fill="#94a3b8" font-size="10">7</text>
  <text x="314.0" y="172" text-anchor="start" transform="rotate(-90 314.0 172)" fill="#f8fafc" font-size="12" font-style="italic">lazy</text>
  <text x="340.0" y="110" text-anchor="middle" fill="#94a3b8" font-size="10">8</text>
  <text x="340.0" y="172" text-anchor="start" transform="rotate(-90 340.0 172)" fill="#f8fafc" font-size="12" font-style="italic">dog</text>
  <text x="366.0" y="110" text-anchor="middle" fill="#94a3b8" font-size="10">9</text>
  <text x="366.0" y="172" text-anchor="start" transform="rotate(-90 366.0 172)" fill="#f8fafc" font-size="12" font-style="italic">ate</text>
  <text x="392.0" y="110" text-anchor="middle" fill="#94a3b8" font-size="10">10</text>
  <text x="392.0" y="172" text-anchor="start" transform="rotate(-90 392.0 172)" fill="#f8fafc" font-size="12" font-style="italic">a</text>
  <text x="418.0" y="110" text-anchor="middle" fill="#94a3b8" font-size="10">11</text>
  <text x="418.0" y="172" text-anchor="start" transform="rotate(-90 418.0 172)" fill="#f8fafc" font-size="12" font-style="italic">small</text>
  <text x="444.0" y="110" text-anchor="middle" fill="#94a3b8" font-size="10">12</text>
  <text x="444.0" y="172" text-anchor="start" transform="rotate(-90 444.0 172)" fill="#f8fafc" font-size="12" font-style="italic">red</text>
  <text x="470.0" y="110" text-anchor="middle" fill="#94a3b8" font-size="10">13</text>
  <text x="470.0" y="172" text-anchor="start" transform="rotate(-90 470.0 172)" fill="#f8fafc" font-size="12" font-style="italic">fish</text>
  <text x="496.0" y="110" text-anchor="middle" fill="#94a3b8" font-size="10">14</text>
  <text x="496.0" y="172" text-anchor="start" transform="rotate(-90 496.0 172)" fill="#f8fafc" font-size="12" font-style="italic">this</text>
  <text x="522.0" y="110" text-anchor="middle" fill="#94a3b8" font-size="10">15</text>
  <text x="522.0" y="172" text-anchor="start" transform="rotate(-90 522.0 172)" fill="#f8fafc" font-size="12" font-style="italic">morning</text>
  <text x="6" y="196.0" fill="#94a3b8" font-size="10">q 0</text>
  <text x="112" y="196.0" text-anchor="end" fill="#f8fafc" font-size="12" font-style="italic">The</text>
  <text x="6" y="222.0" fill="#94a3b8" font-size="10">q 1</text>
  <text x="112" y="222.0" text-anchor="end" fill="#f8fafc" font-size="12" font-style="italic">quick</text>
  <text x="6" y="248.0" fill="#94a3b8" font-size="10">q 2</text>
  <text x="112" y="248.0" text-anchor="end" fill="#f8fafc" font-size="12" font-style="italic">brown</text>
  <text x="6" y="274.0" fill="#94a3b8" font-size="10">q 3</text>
  <text x="112" y="274.0" text-anchor="end" fill="#f8fafc" font-size="12" font-style="italic">fox</text>
  <text x="6" y="300.0" fill="#94a3b8" font-size="10">q 4</text>
  <text x="112" y="300.0" text-anchor="end" fill="#f8fafc" font-size="12" font-style="italic">jumps</text>
  <text x="6" y="326.0" fill="#94a3b8" font-size="10">q 5</text>
  <text x="112" y="326.0" text-anchor="end" fill="#f8fafc" font-size="12" font-style="italic">over</text>
  <text x="6" y="352.0" fill="#94a3b8" font-size="10">q 6</text>
  <text x="112" y="352.0" text-anchor="end" fill="#f8fafc" font-size="12" font-style="italic">the</text>
  <text x="6" y="378.0" fill="#94a3b8" font-size="10">q 7</text>
  <text x="112" y="378.0" text-anchor="end" fill="#f8fafc" font-size="12" font-style="italic">lazy</text>
  <text x="6" y="404.0" fill="#94a3b8" font-size="10">q 8</text>
  <text x="112" y="404.0" text-anchor="end" fill="#f8fafc" font-size="12" font-style="italic">dog</text>
  <text x="6" y="430.0" fill="#94a3b8" font-size="10">q 9</text>
  <text x="112" y="430.0" text-anchor="end" fill="#f8fafc" font-size="12" font-style="italic">ate</text>
  <text x="6" y="456.0" fill="#94a3b8" font-size="10">q10</text>
  <text x="112" y="456.0" text-anchor="end" fill="#f8fafc" font-size="12" font-style="italic">a</text>
  <text x="6" y="482.0" fill="#94a3b8" font-size="10">q11</text>
  <text x="112" y="482.0" text-anchor="end" fill="#f8fafc" font-size="12" font-style="italic">small</text>
  <text x="6" y="508.0" fill="#94a3b8" font-size="10">q12</text>
  <text x="112" y="508.0" text-anchor="end" fill="#f8fafc" font-size="12" font-style="italic">red</text>
  <text x="6" y="534.0" fill="#94a3b8" font-size="10">q13</text>
  <text x="112" y="534.0" text-anchor="end" fill="#f8fafc" font-size="12" font-style="italic">fish</text>
  <text x="6" y="560.0" fill="#94a3b8" font-size="10">q14</text>
  <text x="112" y="560.0" text-anchor="end" fill="#f8fafc" font-size="12" font-style="italic">this</text>
  <text x="6" y="586.0" fill="#94a3b8" font-size="10">q15</text>
  <text x="112" y="586.0" text-anchor="end" fill="#f8fafc" font-size="12" font-style="italic">morning</text>
  <rect x="120.0" y="180" width="24.0" height="24" rx="3" ry="3" fill="#22c55e" />
  <rect x="146.0" y="180" width="24.0" height="24" rx="3" ry="3" fill="#1e293b" />
  <rect x="172.0" y="180" width="24.0" height="24" rx="3" ry="3" fill="#1e293b" />
  <rect x="198.0" y="180" width="24.0" height="24" rx="3" ry="3" fill="#1e293b" />
  <rect x="224.0" y="180" width="24.0" height="24" rx="3" ry="3" fill="#1e293b" />
  <rect x="250.0" y="180" width="24.0" height="24" rx="3" ry="3" fill="#1e293b" />
  <rect x="276.0" y="180" width="24.0" height="24" rx="3" ry="3" fill="#1e293b" />
  <rect x="302.0" y="180" width="24.0" height="24" rx="3" ry="3" fill="#1e293b" />
  <rect x="328.0" y="180" width="24.0" height="24" rx="3" ry="3" fill="#1e293b" />
  <rect x="354.0" y="180" width="24.0" height="24" rx="3" ry="3" fill="#1e293b" />
  <rect x="380.0" y="180" width="24.0" height="24" rx="3" ry="3" fill="#1e293b" />
  <rect x="406.0" y="180" width="24.0" height="24" rx="3" ry="3" fill="#1e293b" />
  <rect x="432.0" y="180" width="24.0" height="24" rx="3" ry="3" fill="#1e293b" />
  <rect x="458.0" y="180" width="24.0" height="24" rx="3" ry="3" fill="#1e293b" />
  <rect x="484.0" y="180" width="24.0" height="24" rx="3" ry="3" fill="#1e293b" />
  <rect x="510.0" y="180" width="24.0" height="24" rx="3" ry="3" fill="#1e293b" />
  <rect x="120.0" y="206" width="24.0" height="24" rx="3" ry="3" fill="#22c55e" />
  <rect x="146.0" y="206" width="24.0" height="24" rx="3" ry="3" fill="#22c55e" />
  <rect x="172.0" y="206" width="24.0" height="24" rx="3" ry="3" fill="#1e293b" />
  <rect x="198.0" y="206" width="24.0" height="24" rx="3" ry="3" fill="#1e293b" />
  <rect x="224.0" y="206" width="24.0" height="24" rx="3" ry="3" fill="#1e293b" />
  <rect x="250.0" y="206" width="24.0" height="24" rx="3" ry="3" fill="#1e293b" />
  <rect x="276.0" y="206" width="24.0" height="24" rx="3" ry="3" fill="#1e293b" />
  <rect x="302.0" y="206" width="24.0" height="24" rx="3" ry="3" fill="#1e293b" />
  <rect x="328.0" y="206" width="24.0" height="24" rx="3" ry="3" fill="#1e293b" />
  <rect x="354.0" y="206" width="24.0" height="24" rx="3" ry="3" fill="#1e293b" />
  <rect x="380.0" y="206" width="24.0" height="24" rx="3" ry="3" fill="#1e293b" />
  <rect x="406.0" y="206" width="24.0" height="24" rx="3" ry="3" fill="#1e293b" />
  <rect x="432.0" y="206" width="24.0" height="24" rx="3" ry="3" fill="#1e293b" />
  <rect x="458.0" y="206" width="24.0" height="24" rx="3" ry="3" fill="#1e293b" />
  <rect x="484.0" y="206" width="24.0" height="24" rx="3" ry="3" fill="#1e293b" />
  <rect x="510.0" y="206" width="24.0" height="24" rx="3" ry="3" fill="#1e293b" />
  <rect x="120.0" y="232" width="24.0" height="24" rx="3" ry="3" fill="#22c55e" />
  <rect x="146.0" y="232" width="24.0" height="24" rx="3" ry="3" fill="#22c55e" />
  <rect x="172.0" y="232" width="24.0" height="24" rx="3" ry="3" fill="#22c55e" />
  <rect x="198.0" y="232" width="24.0" height="24" rx="3" ry="3" fill="#1e293b" />
  <rect x="224.0" y="232" width="24.0" height="24" rx="3" ry="3" fill="#1e293b" />
  <rect x="250.0" y="232" width="24.0" height="24" rx="3" ry="3" fill="#1e293b" />
  <rect x="276.0" y="232" width="24.0" height="24" rx="3" ry="3" fill="#1e293b" />
  <rect x="302.0" y="232" width="24.0" height="24" rx="3" ry="3" fill="#1e293b" />
  <rect x="328.0" y="232" width="24.0" height="24" rx="3" ry="3" fill="#1e293b" />
  <rect x="354.0" y="232" width="24.0" height="24" rx="3" ry="3" fill="#1e293b" />
  <rect x="380.0" y="232" width="24.0" height="24" rx="3" ry="3" fill="#1e293b" />
  <rect x="406.0" y="232" width="24.0" height="24" rx="3" ry="3" fill="#1e293b" />
  <rect x="432.0" y="232" width="24.0" height="24" rx="3" ry="3" fill="#1e293b" />
  <rect x="458.0" y="232" width="24.0" height="24" rx="3" ry="3" fill="#1e293b" />
  <rect x="484.0" y="232" width="24.0" height="24" rx="3" ry="3" fill="#1e293b" />
  <rect x="510.0" y="232" width="24.0" height="24" rx="3" ry="3" fill="#1e293b" />
  <rect x="120.0" y="258" width="24.0" height="24" rx="3" ry="3" fill="#22c55e" />
  <rect x="146.0" y="258" width="24.0" height="24" rx="3" ry="3" fill="#22c55e" />
  <rect x="172.0" y="258" width="24.0" height="24" rx="3" ry="3" fill="#22c55e" />
  <rect x="198.0" y="258" width="24.0" height="24" rx="3" ry="3" fill="#22c55e" />
  <rect x="224.0" y="258" width="24.0" height="24" rx="3" ry="3" fill="#1e293b" />
  <rect x="250.0" y="258" width="24.0" height="24" rx="3" ry="3" fill="#1e293b" />
  <rect x="276.0" y="258" width="24.0" height="24" rx="3" ry="3" fill="#1e293b" />
  <rect x="302.0" y="258" width="24.0" height="24" rx="3" ry="3" fill="#1e293b" />
  <rect x="328.0" y="258" width="24.0" height="24" rx="3" ry="3" fill="#1e293b" />
  <rect x="354.0" y="258" width="24.0" height="24" rx="3" ry="3" fill="#1e293b" />
  <rect x="380.0" y="258" width="24.0" height="24" rx="3" ry="3" fill="#1e293b" />
  <rect x="406.0" y="258" width="24.0" height="24" rx="3" ry="3" fill="#1e293b" />
  <rect x="432.0" y="258" width="24.0" height="24" rx="3" ry="3" fill="#1e293b" />
  <rect x="458.0" y="258" width="24.0" height="24" rx="3" ry="3" fill="#1e293b" />
  <rect x="484.0" y="258" width="24.0" height="24" rx="3" ry="3" fill="#1e293b" />
  <rect x="510.0" y="258" width="24.0" height="24" rx="3" ry="3" fill="#1e293b" />
  <rect x="120.0" y="284" width="24.0" height="24" rx="3" ry="3" fill="#22c55e" />
  <rect x="146.0" y="284" width="24.0" height="24" rx="3" ry="3" fill="#22c55e" />
  <rect x="172.0" y="284" width="24.0" height="24" rx="3" ry="3" fill="#22c55e" />
  <rect x="198.0" y="284" width="24.0" height="24" rx="3" ry="3" fill="#22c55e" />
  <rect x="224.0" y="284" width="24.0" height="24" rx="3" ry="3" fill="#22c55e" />
  <rect x="250.0" y="284" width="24.0" height="24" rx="3" ry="3" fill="#1e293b" />
  <rect x="276.0" y="284" width="24.0" height="24" rx="3" ry="3" fill="#1e293b" />
  <rect x="302.0" y="284" width="24.0" height="24" rx="3" ry="3" fill="#1e293b" />
  <rect x="328.0" y="284" width="24.0" height="24" rx="3" ry="3" fill="#1e293b" />
  <rect x="354.0" y="284" width="24.0" height="24" rx="3" ry="3" fill="#1e293b" />
  <rect x="380.0" y="284" width="24.0" height="24" rx="3" ry="3" fill="#1e293b" />
  <rect x="406.0" y="284" width="24.0" height="24" rx="3" ry="3" fill="#1e293b" />
  <rect x="432.0" y="284" width="24.0" height="24" rx="3" ry="3" fill="#1e293b" />
  <rect x="458.0" y="284" width="24.0" height="24" rx="3" ry="3" fill="#1e293b" />
  <rect x="484.0" y="284" width="24.0" height="24" rx="3" ry="3" fill="#1e293b" />
  <rect x="510.0" y="284" width="24.0" height="24" rx="3" ry="3" fill="#1e293b" />
  <rect x="120.0" y="310" width="24.0" height="24" rx="3" ry="3" fill="#22c55e" />
  <rect x="146.0" y="310" width="24.0" height="24" rx="3" ry="3" fill="#22c55e" />
  <rect x="172.0" y="310" width="24.0" height="24" rx="3" ry="3" fill="#22c55e" />
  <rect x="198.0" y="310" width="24.0" height="24" rx="3" ry="3" fill="#22c55e" />
  <rect x="224.0" y="310" width="24.0" height="24" rx="3" ry="3" fill="#22c55e" />
  <rect x="250.0" y="310" width="24.0" height="24" rx="3" ry="3" fill="#22c55e" />
  <rect x="276.0" y="310" width="24.0" height="24" rx="3" ry="3" fill="#1e293b" />
  <rect x="302.0" y="310" width="24.0" height="24" rx="3" ry="3" fill="#1e293b" />
  <rect x="328.0" y="310" width="24.0" height="24" rx="3" ry="3" fill="#1e293b" />
  <rect x="354.0" y="310" width="24.0" height="24" rx="3" ry="3" fill="#1e293b" />
  <rect x="380.0" y="310" width="24.0" height="24" rx="3" ry="3" fill="#1e293b" />
  <rect x="406.0" y="310" width="24.0" height="24" rx="3" ry="3" fill="#1e293b" />
  <rect x="432.0" y="310" width="24.0" height="24" rx="3" ry="3" fill="#1e293b" />
  <rect x="458.0" y="310" width="24.0" height="24" rx="3" ry="3" fill="#1e293b" />
  <rect x="484.0" y="310" width="24.0" height="24" rx="3" ry="3" fill="#1e293b" />
  <rect x="510.0" y="310" width="24.0" height="24" rx="3" ry="3" fill="#1e293b" />
  <rect x="120.0" y="336" width="24.0" height="24" rx="3" ry="3" fill="#22c55e" />
  <rect x="146.0" y="336" width="24.0" height="24" rx="3" ry="3" fill="#22c55e" />
  <rect x="172.0" y="336" width="24.0" height="24" rx="3" ry="3" fill="#22c55e" />
  <rect x="198.0" y="336" width="24.0" height="24" rx="3" ry="3" fill="#22c55e" />
  <rect x="224.0" y="336" width="24.0" height="24" rx="3" ry="3" fill="#22c55e" />
  <rect x="250.0" y="336" width="24.0" height="24" rx="3" ry="3" fill="#22c55e" />
  <rect x="276.0" y="336" width="24.0" height="24" rx="3" ry="3" fill="#22c55e" />
  <rect x="302.0" y="336" width="24.0" height="24" rx="3" ry="3" fill="#1e293b" />
  <rect x="328.0" y="336" width="24.0" height="24" rx="3" ry="3" fill="#1e293b" />
  <rect x="354.0" y="336" width="24.0" height="24" rx="3" ry="3" fill="#1e293b" />
  <rect x="380.0" y="336" width="24.0" height="24" rx="3" ry="3" fill="#1e293b" />
  <rect x="406.0" y="336" width="24.0" height="24" rx="3" ry="3" fill="#1e293b" />
  <rect x="432.0" y="336" width="24.0" height="24" rx="3" ry="3" fill="#1e293b" />
  <rect x="458.0" y="336" width="24.0" height="24" rx="3" ry="3" fill="#1e293b" />
  <rect x="484.0" y="336" width="24.0" height="24" rx="3" ry="3" fill="#1e293b" />
  <rect x="510.0" y="336" width="24.0" height="24" rx="3" ry="3" fill="#1e293b" />
  <rect x="120.0" y="362" width="24.0" height="24" rx="3" ry="3" fill="#22c55e" />
  <rect x="146.0" y="362" width="24.0" height="24" rx="3" ry="3" fill="#22c55e" />
  <rect x="172.0" y="362" width="24.0" height="24" rx="3" ry="3" fill="#22c55e" />
  <rect x="198.0" y="362" width="24.0" height="24" rx="3" ry="3" fill="#22c55e" />
  <rect x="224.0" y="362" width="24.0" height="24" rx="3" ry="3" fill="#22c55e" />
  <rect x="250.0" y="362" width="24.0" height="24" rx="3" ry="3" fill="#22c55e" />
  <rect x="276.0" y="362" width="24.0" height="24" rx="3" ry="3" fill="#22c55e" />
  <rect x="302.0" y="362" width="24.0" height="24" rx="3" ry="3" fill="#22c55e" />
  <rect x="328.0" y="362" width="24.0" height="24" rx="3" ry="3" fill="#1e293b" />
  <rect x="354.0" y="362" width="24.0" height="24" rx="3" ry="3" fill="#1e293b" />
  <rect x="380.0" y="362" width="24.0" height="24" rx="3" ry="3" fill="#1e293b" />
  <rect x="406.0" y="362" width="24.0" height="24" rx="3" ry="3" fill="#1e293b" />
  <rect x="432.0" y="362" width="24.0" height="24" rx="3" ry="3" fill="#1e293b" />
  <rect x="458.0" y="362" width="24.0" height="24" rx="3" ry="3" fill="#1e293b" />
  <rect x="484.0" y="362" width="24.0" height="24" rx="3" ry="3" fill="#1e293b" />
  <rect x="510.0" y="362" width="24.0" height="24" rx="3" ry="3" fill="#1e293b" />
  <rect x="120.0" y="388" width="24.0" height="24" rx="3" ry="3" fill="#1e293b" />
  <rect x="146.0" y="388" width="24.0" height="24" rx="3" ry="3" fill="#22c55e" />
  <rect x="172.0" y="388" width="24.0" height="24" rx="3" ry="3" fill="#22c55e" />
  <rect x="198.0" y="388" width="24.0" height="24" rx="3" ry="3" fill="#22c55e" />
  <rect x="224.0" y="388" width="24.0" height="24" rx="3" ry="3" fill="#22c55e" />
  <rect x="250.0" y="388" width="24.0" height="24" rx="3" ry="3" fill="#22c55e" />
  <rect x="276.0" y="388" width="24.0" height="24" rx="3" ry="3" fill="#22c55e" />
  <rect x="302.0" y="388" width="24.0" height="24" rx="3" ry="3" fill="#22c55e" />
  <rect x="328.0" y="388" width="24.0" height="24" rx="3" ry="3" fill="#22c55e" />
  <rect x="354.0" y="388" width="24.0" height="24" rx="3" ry="3" fill="#1e293b" />
  <rect x="380.0" y="388" width="24.0" height="24" rx="3" ry="3" fill="#1e293b" />
  <rect x="406.0" y="388" width="24.0" height="24" rx="3" ry="3" fill="#1e293b" />
  <rect x="432.0" y="388" width="24.0" height="24" rx="3" ry="3" fill="#1e293b" />
  <rect x="458.0" y="388" width="24.0" height="24" rx="3" ry="3" fill="#1e293b" />
  <rect x="484.0" y="388" width="24.0" height="24" rx="3" ry="3" fill="#1e293b" />
  <rect x="510.0" y="388" width="24.0" height="24" rx="3" ry="3" fill="#1e293b" />
  <rect x="120.0" y="414" width="24.0" height="24" rx="3" ry="3" fill="#1e293b" />
  <rect x="146.0" y="414" width="24.0" height="24" rx="3" ry="3" fill="#1e293b" />
  <rect x="172.0" y="414" width="24.0" height="24" rx="3" ry="3" fill="#22c55e" />
  <rect x="198.0" y="414" width="24.0" height="24" rx="3" ry="3" fill="#22c55e" />
  <rect x="224.0" y="414" width="24.0" height="24" rx="3" ry="3" fill="#22c55e" />
  <rect x="250.0" y="414" width="24.0" height="24" rx="3" ry="3" fill="#22c55e" />
  <rect x="276.0" y="414" width="24.0" height="24" rx="3" ry="3" fill="#22c55e" />
  <rect x="302.0" y="414" width="24.0" height="24" rx="3" ry="3" fill="#22c55e" />
  <rect x="328.0" y="414" width="24.0" height="24" rx="3" ry="3" fill="#22c55e" />
  <rect x="354.0" y="414" width="24.0" height="24" rx="3" ry="3" fill="#22c55e" />
  <rect x="380.0" y="414" width="24.0" height="24" rx="3" ry="3" fill="#1e293b" />
  <rect x="406.0" y="414" width="24.0" height="24" rx="3" ry="3" fill="#1e293b" />
  <rect x="432.0" y="414" width="24.0" height="24" rx="3" ry="3" fill="#1e293b" />
  <rect x="458.0" y="414" width="24.0" height="24" rx="3" ry="3" fill="#1e293b" />
  <rect x="484.0" y="414" width="24.0" height="24" rx="3" ry="3" fill="#1e293b" />
  <rect x="510.0" y="414" width="24.0" height="24" rx="3" ry="3" fill="#1e293b" />
  <rect x="120.0" y="440" width="24.0" height="24" rx="3" ry="3" fill="#1e293b" />
  <rect x="146.0" y="440" width="24.0" height="24" rx="3" ry="3" fill="#1e293b" />
  <rect x="172.0" y="440" width="24.0" height="24" rx="3" ry="3" fill="#1e293b" />
  <rect x="198.0" y="440" width="24.0" height="24" rx="3" ry="3" fill="#22c55e" />
  <rect x="224.0" y="440" width="24.0" height="24" rx="3" ry="3" fill="#22c55e" />
  <rect x="250.0" y="440" width="24.0" height="24" rx="3" ry="3" fill="#22c55e" />
  <rect x="276.0" y="440" width="24.0" height="24" rx="3" ry="3" fill="#22c55e" />
  <rect x="302.0" y="440" width="24.0" height="24" rx="3" ry="3" fill="#22c55e" />
  <rect x="328.0" y="440" width="24.0" height="24" rx="3" ry="3" fill="#22c55e" />
  <rect x="354.0" y="440" width="24.0" height="24" rx="3" ry="3" fill="#22c55e" />
  <rect x="380.0" y="440" width="24.0" height="24" rx="3" ry="3" fill="#22c55e" />
  <rect x="406.0" y="440" width="24.0" height="24" rx="3" ry="3" fill="#1e293b" />
  <rect x="432.0" y="440" width="24.0" height="24" rx="3" ry="3" fill="#1e293b" />
  <rect x="458.0" y="440" width="24.0" height="24" rx="3" ry="3" fill="#1e293b" />
  <rect x="484.0" y="440" width="24.0" height="24" rx="3" ry="3" fill="#1e293b" />
  <rect x="510.0" y="440" width="24.0" height="24" rx="3" ry="3" fill="#1e293b" />
  <rect x="120.0" y="466" width="24.0" height="24" rx="3" ry="3" fill="#1e293b" />
  <rect x="146.0" y="466" width="24.0" height="24" rx="3" ry="3" fill="#1e293b" />
  <rect x="172.0" y="466" width="24.0" height="24" rx="3" ry="3" fill="#1e293b" />
  <rect x="198.0" y="466" width="24.0" height="24" rx="3" ry="3" fill="#1e293b" />
  <rect x="224.0" y="466" width="24.0" height="24" rx="3" ry="3" fill="#22c55e" />
  <rect x="250.0" y="466" width="24.0" height="24" rx="3" ry="3" fill="#22c55e" />
  <rect x="276.0" y="466" width="24.0" height="24" rx="3" ry="3" fill="#22c55e" />
  <rect x="302.0" y="466" width="24.0" height="24" rx="3" ry="3" fill="#22c55e" />
  <rect x="328.0" y="466" width="24.0" height="24" rx="3" ry="3" fill="#22c55e" />
  <rect x="354.0" y="466" width="24.0" height="24" rx="3" ry="3" fill="#22c55e" />
  <rect x="380.0" y="466" width="24.0" height="24" rx="3" ry="3" fill="#22c55e" />
  <rect x="406.0" y="466" width="24.0" height="24" rx="3" ry="3" fill="#22c55e" />
  <rect x="432.0" y="466" width="24.0" height="24" rx="3" ry="3" fill="#1e293b" />
  <rect x="458.0" y="466" width="24.0" height="24" rx="3" ry="3" fill="#1e293b" />
  <rect x="484.0" y="466" width="24.0" height="24" rx="3" ry="3" fill="#1e293b" />
  <rect x="510.0" y="466" width="24.0" height="24" rx="3" ry="3" fill="#1e293b" />
  <rect x="120.0" y="492" width="24.0" height="24" rx="3" ry="3" fill="#1e293b" />
  <rect x="146.0" y="492" width="24.0" height="24" rx="3" ry="3" fill="#1e293b" />
  <rect x="172.0" y="492" width="24.0" height="24" rx="3" ry="3" fill="#1e293b" />
  <rect x="198.0" y="492" width="24.0" height="24" rx="3" ry="3" fill="#1e293b" />
  <rect x="224.0" y="492" width="24.0" height="24" rx="3" ry="3" fill="#1e293b" />
  <rect x="250.0" y="492" width="24.0" height="24" rx="3" ry="3" fill="#22c55e" />
  <rect x="276.0" y="492" width="24.0" height="24" rx="3" ry="3" fill="#22c55e" />
  <rect x="302.0" y="492" width="24.0" height="24" rx="3" ry="3" fill="#22c55e" />
  <rect x="328.0" y="492" width="24.0" height="24" rx="3" ry="3" fill="#22c55e" />
  <rect x="354.0" y="492" width="24.0" height="24" rx="3" ry="3" fill="#22c55e" />
  <rect x="380.0" y="492" width="24.0" height="24" rx="3" ry="3" fill="#22c55e" />
  <rect x="406.0" y="492" width="24.0" height="24" rx="3" ry="3" fill="#22c55e" />
  <rect x="432.0" y="492" width="24.0" height="24" rx="3" ry="3" fill="#22c55e" />
  <rect x="458.0" y="492" width="24.0" height="24" rx="3" ry="3" fill="#1e293b" />
  <rect x="484.0" y="492" width="24.0" height="24" rx="3" ry="3" fill="#1e293b" />
  <rect x="510.0" y="492" width="24.0" height="24" rx="3" ry="3" fill="#1e293b" />
  <rect x="120.0" y="518" width="24.0" height="24" rx="3" ry="3" fill="#1e293b" />
  <rect x="146.0" y="518" width="24.0" height="24" rx="3" ry="3" fill="#1e293b" />
  <rect x="172.0" y="518" width="24.0" height="24" rx="3" ry="3" fill="#1e293b" />
  <rect x="198.0" y="518" width="24.0" height="24" rx="3" ry="3" fill="#1e293b" />
  <rect x="224.0" y="518" width="24.0" height="24" rx="3" ry="3" fill="#1e293b" />
  <rect x="250.0" y="518" width="24.0" height="24" rx="3" ry="3" fill="#1e293b" />
  <rect x="276.0" y="518" width="24.0" height="24" rx="3" ry="3" fill="#22c55e" />
  <rect x="302.0" y="518" width="24.0" height="24" rx="3" ry="3" fill="#22c55e" />
  <rect x="328.0" y="518" width="24.0" height="24" rx="3" ry="3" fill="#22c55e" />
  <rect x="354.0" y="518" width="24.0" height="24" rx="3" ry="3" fill="#22c55e" />
  <rect x="380.0" y="518" width="24.0" height="24" rx="3" ry="3" fill="#22c55e" />
  <rect x="406.0" y="518" width="24.0" height="24" rx="3" ry="3" fill="#22c55e" />
  <rect x="432.0" y="518" width="24.0" height="24" rx="3" ry="3" fill="#22c55e" />
  <rect x="458.0" y="518" width="24.0" height="24" rx="3" ry="3" fill="#22c55e" />
  <rect x="484.0" y="518" width="24.0" height="24" rx="3" ry="3" fill="#1e293b" />
  <rect x="510.0" y="518" width="24.0" height="24" rx="3" ry="3" fill="#1e293b" />
  <rect x="120.0" y="544" width="24.0" height="24" rx="3" ry="3" fill="#1e293b" />
  <rect x="146.0" y="544" width="24.0" height="24" rx="3" ry="3" fill="#1e293b" />
  <rect x="172.0" y="544" width="24.0" height="24" rx="3" ry="3" fill="#1e293b" />
  <rect x="198.0" y="544" width="24.0" height="24" rx="3" ry="3" fill="#1e293b" />
  <rect x="224.0" y="544" width="24.0" height="24" rx="3" ry="3" fill="#1e293b" />
  <rect x="250.0" y="544" width="24.0" height="24" rx="3" ry="3" fill="#1e293b" />
  <rect x="276.0" y="544" width="24.0" height="24" rx="3" ry="3" fill="#1e293b" />
  <rect x="302.0" y="544" width="24.0" height="24" rx="3" ry="3" fill="#22c55e" />
  <rect x="328.0" y="544" width="24.0" height="24" rx="3" ry="3" fill="#22c55e" />
  <rect x="354.0" y="544" width="24.0" height="24" rx="3" ry="3" fill="#22c55e" />
  <rect x="380.0" y="544" width="24.0" height="24" rx="3" ry="3" fill="#22c55e" />
  <rect x="406.0" y="544" width="24.0" height="24" rx="3" ry="3" fill="#22c55e" />
  <rect x="432.0" y="544" width="24.0" height="24" rx="3" ry="3" fill="#22c55e" />
  <rect x="458.0" y="544" width="24.0" height="24" rx="3" ry="3" fill="#22c55e" />
  <rect x="484.0" y="544" width="24.0" height="24" rx="3" ry="3" fill="#22c55e" />
  <rect x="510.0" y="544" width="24.0" height="24" rx="3" ry="3" fill="#1e293b" />
  <rect x="120.0" y="570" width="24.0" height="24" rx="3" ry="3" fill="#1e293b" />
  <rect x="146.0" y="570" width="24.0" height="24" rx="3" ry="3" fill="#1e293b" />
  <rect x="172.0" y="570" width="24.0" height="24" rx="3" ry="3" fill="#1e293b" />
  <rect x="198.0" y="570" width="24.0" height="24" rx="3" ry="3" fill="#1e293b" />
  <rect x="224.0" y="570" width="24.0" height="24" rx="3" ry="3" fill="#1e293b" />
  <rect x="250.0" y="570" width="24.0" height="24" rx="3" ry="3" fill="#1e293b" />
  <rect x="276.0" y="570" width="24.0" height="24" rx="3" ry="3" fill="#1e293b" />
  <rect x="302.0" y="570" width="24.0" height="24" rx="3" ry="3" fill="#1e293b" />
  <rect x="328.0" y="570" width="24.0" height="24" rx="3" ry="3" fill="#22c55e" />
  <rect x="354.0" y="570" width="24.0" height="24" rx="3" ry="3" fill="#22c55e" />
  <rect x="380.0" y="570" width="24.0" height="24" rx="3" ry="3" fill="#22c55e" />
  <rect x="406.0" y="570" width="24.0" height="24" rx="3" ry="3" fill="#22c55e" />
  <rect x="432.0" y="570" width="24.0" height="24" rx="3" ry="3" fill="#22c55e" />
  <rect x="458.0" y="570" width="24.0" height="24" rx="3" ry="3" fill="#22c55e" />
  <rect x="484.0" y="570" width="24.0" height="24" rx="3" ry="3" fill="#22c55e" />
  <rect x="510.0" y="570" width="24.0" height="24" rx="3" ry="3" fill="#22c55e" />
  <rect x="120" y="612" width="14" height="14" rx="3" ry="3" fill="#22c55e" />
  <text x="140" y="624" fill="#f8fafc">attended-to</text>
  <rect x="235.5" y="612" width="14" height="14" rx="3" ry="3" fill="#1e293b" />
  <text x="255.5" y="624" fill="#f8fafc">masked (not causally ready)</text>
</svg>