<svg xmlns="http://www.w3.org/2000/svg" viewBox="0 0 1030.0 818" width="1030.0" height="818" preserveAspectRatio="xMinYMin meet" font-family="ui-monospace, SFMono-Regular, Menlo, monospace" font-size="11">
  <rect x="0" y="0" width="1030.0" height="818" fill="#0b1220" />
  <text x="120" y="20" font-size="15" font-weight="600" fill="#f8fafc">Layer 2: heavily_compressed_attention</text>
  <text x="120" y="40" fill="#94a3b8">shape=[16, 18]   keys →   queries ↓</text>
  <text x="120" y="60" fill="#22c55e">compress_rate (m) = 8   total compressed entries = 2</text>
  <text x="132.0" y="270" text-anchor="middle" fill="#94a3b8" font-size="10">0</text>
  <text x="132.0" y="332" text-anchor="start" transform="rotate(-90 132.0 332)" fill="#f8fafc" font-size="12" font-style="italic">The</text>
  <text x="158.0" y="270" text-anchor="middle" fill="#94a3b8" font-size="10">1</text>
  <text x="158.0" y="332" text-anchor="start" transform="rotate(-90 158.0 332)" fill="#f8fafc" font-size="12" font-style="italic">quick</text>
  <text x="184.0" y="270" text-anchor="middle" fill="#94a3b8" font-size="10">2</text>
  <text x="184.0" y="332" text-anchor="start" transform="rotate(-90 184.0 332)" fill="#f8fafc" font-size="12" font-style="italic">brown</text>
  <text x="210.0" y="270" text-anchor="middle" fill="#94a3b8" font-size="10">3</text>
  <text x="210.0" y="332" text-anchor="start" transform="rotate(-90 210.0 332)" fill="#f8fafc" font-size="12" font-style="italic">fox</text>
  <text x="236.0" y="270" text-anchor="middle" fill="#94a3b8" font-size="10">4</text>
  <text x="236.0" y="332" text-anchor="start" transform="rotate(-90 236.0 332)" fill="#f8fafc" font-size="12" font-style="italic">jumps</text>
  <text x="262.0" y="270" text-anchor="middle" fill="#94a3b8" font-size="10">5</text>
  <text x="262.0" y="332" text-anchor="start" transform="rotate(-90 262.0 332)" fill="#f8fafc" font-size="12" font-style="italic">over</text>
  <text x="288.0" y="270" text-anchor="middle" fill="#94a3b8" font-size="10">6</text>
  <text x="288.0" y="332" text-anchor="start" transform="rotate(-90 288.0 332)" fill="#f8fafc" font-size="12" font-style="italic">the</text>
  <text x="314.0" y="270" text-anchor="middle" fill="#94a3b8" font-size="10">7</text>
  <text x="314.0" y="332" text-anchor="start" transform="rotate(-90 314.0 332)" fill="#f8fafc" font-size="12" font-style="italic">lazy</text>
  <text x="340.0" y="270" text-anchor="middle" fill="#94a3b8" font-size="10">8</text>
  <text x="340.0" y="332" text-anchor="start" transform="rotate(-90 340.0 332)" fill="#f8fafc" font-size="12" font-style="italic">dog</text>
  <text x="366.0" y="270" text-anchor="middle" fill="#94a3b8" font-size="10">9</text>
  <text x="366.0" y="332" text-anchor="start" transform="rotate(-90 366.0 332)" fill="#f8fafc" font-size="12" font-style="italic">ate</text>
  <text x="392.0" y="270" text-anchor="middle" fill="#94a3b8" font-size="10">10</text>
  <text x="392.0" y="332" text-anchor="start" transform="rotate(-90 392.0 332)" fill="#f8fafc" font-size="12" font-style="italic">a</text>
  <text x="418.0" y="270" text-anchor="middle" fill="#94a3b8" font-size="10">11</text>
  <text x="418.0" y="332" text-anchor="start" transform="rotate(-90 418.0 332)" fill="#f8fafc" font-size="12" font-style="italic">small</text>
  <text x="444.0" y="270" text-anchor="middle" fill="#94a3b8" font-size="10">12</text>
  <text x="444.0" y="332" text-anchor="start" transform="rotate(-90 444.0 332)" fill="#f8fafc" font-size="12" font-style="italic">red</text>
  <text x="470.0" y="270" text-anchor="middle" fill="#94a3b8" font-size="10">13</text>
  <text x="470.0" y="332" text-anchor="start" transform="rotate(-90 470.0 332)" fill="#f8fafc" font-size="12" font-style="italic">fish</text>
  <text x="496.0" y="270" text-anchor="middle" fill="#94a3b8" font-size="10">14</text>
  <text x="496.0" y="332" text-anchor="start" transform="rotate(-90 496.0 332)" fill="#f8fafc" font-size="12" font-style="italic">this</text>
  <text x="522.0" y="270" text-anchor="middle" fill="#94a3b8" font-size="10">15</text>
  <text x="522.0" y="332" text-anchor="start" transform="rotate(-90 522.0 332)" fill="#f8fafc" font-size="12" font-style="italic">morning</text>
  <text x="647.0" y="256" text-anchor="middle" fill="#22c55e" font-size="13" font-weight="700">C0</text>
  <text x="647.0" y="270" text-anchor="middle" fill="#94a3b8" font-size="10">pos 0–7</text>
  <text x="556.0" y="332" text-anchor="start" transform="rotate(-90 556.0 332)" fill="#f8fafc" font-size="12" font-style="italic">The</text>
  <text x="582.0" y="332" text-anchor="start" transform="rotate(-90 582.0 332)" fill="#f8fafc" font-size="12" font-style="italic">quick</text>
  <line x1="569.0" y1="280" x2="569.0" y2="340" stroke="#475569" stroke-width="0.7" stroke-dasharray="3 3" />
  <text x="608.0" y="332" text-anchor="start" transform="rotate(-90 608.0 332)" fill="#f8fafc" font-size="12" font-style="italic">brown</text>
  <line x1="595.0" y1="280" x2="595.0" y2="340" stroke="#475569" stroke-width="0.7" stroke-dasharray="3 3" />
  <text x="634.0" y="332" text-anchor="start" transform="rotate(-90 634.0 332)" fill="#f8fafc" font-size="12" font-style="italic">fox</text>
  <line x1="621.0" y1="280" x2="621.0" y2="340" stroke="#475569" stroke-width="0.7" stroke-dasharray="3 3" />
  <text x="660.0" y="332" text-anchor="start" transform="rotate(-90 660.0 332)" fill="#f8fafc" font-size="12" font-style="italic">jumps</text>
  <line x1="647.0" y1="280" x2="647.0" y2="340" stroke="#475569" stroke-width="0.7" stroke-dasharray="3 3" />
  <text x="686.0" y="332" text-anchor="start" transform="rotate(-90 686.0 332)" fill="#f8fafc" font-size="12" font-style="italic">over</text>
  <line x1="673.0" y1="280" x2="673.0" y2="340" stroke="#475569" stroke-width="0.7" stroke-dasharray="3 3" />
  <text x="712.0" y="332" text-anchor="start" transform="rotate(-90 712.0 332)" fill="#f8fafc" font-size="12" font-style="italic">the</text>
  <line x1="699.0" y1="280" x2="699.0" y2="340" stroke="#475569" stroke-width="0.7" stroke-dasharray="3 3" />
  <text x="738.0" y="332" text-anchor="start" transform="rotate(-90 738.0 332)" fill="#f8fafc" font-size="12" font-style="italic">lazy</text>
  <line x1="725.0" y1="280" x2="725.0" y2="340" stroke="#475569" stroke-width="0.7" stroke-dasharray="3 3" />
  <text x="879.0" y="256" text-anchor="middle" fill="#22c55e" font-size="13" font-weight="700">C1</text>
  <text x="879.0" y="270" text-anchor="middle" fill="#94a3b8" font-size="10">pos 8–15</text>
  <text x="788.0" y="332" text-anchor="start" transform="rotate(-90 788.0 332)" fill="#f8fafc" font-size="12" font-style="italic">dog</text>
  <text x="814.0" y="332" text-anchor="start" transform="rotate(-90 814.0 332)" fill="#f8fafc" font-size="12" font-style="italic">ate</text>
  <line x1="801.0" y1="280" x2="801.0" y2="340" stroke="#475569" stroke-width="0.7" stroke-dasharray="3 3" />
  <text x="840.0" y="332" text-anchor="start" transform="rotate(-90 840.0 332)" fill="#f8fafc" font-size="12" font-style="italic">a</text>
  <line x1="827.0" y1="280" x2="827.0" y2="340" stroke="#475569" stroke-width="0.7" stroke-dasharray="3 3" />
  <text x="866.0" y="332" text-anchor="start" transform="rotate(-90 866.0 332)" fill="#f8fafc" font-size="12" font-style="italic">small</text>
  <line x1="853.0" y1="280" x2="853.0" y2="340" stroke="#475569" stroke-width="0.7" stroke-dasharray="3 3" />
  <text x="892.0" y="332" text-anchor="start" transform="rotate(-90 892.0 332)" fill="#f8fafc" font-size="12" font-style="italic">red</text>
  <line x1="879.0" y1="280" x2="879.0" y2="340" stroke="#475569" stroke-width="0.7" stroke-dasharray="3 3" />
  <text x="918.0" y="332" text-anchor="start" transform="rotate(-90 918.0 332)" fill="#f8fafc" font-size="12" font-style="italic">fish</text>
  <line x1="905.0" y1="280" x2="905.0" y2="340" stroke="#475569" stroke-width="0.7" stroke-dasharray="3 3" />
  <text x="944.0" y="332" text-anchor="start" transform="rotate(-90 944.0 332)" fill="#f8fafc" font-size="12" font-style="italic">this</text>
  <line x1="931.0" y1="280" x2="931.0" y2="340" stroke="#475569" stroke-width="0.7" stroke-dasharray="3 3" />
  <text x="970.0" y="332" text-anchor="start" transform="rotate(-90 970.0 332)" fill="#f8fafc" font-size="12" font-style="italic">morning</text>
  <line x1="957.0" y1="280" x2="957.0" y2="340" stroke="#475569" stroke-width="0.7" stroke-dasharray="3 3" />
  <text x="6" y="356.0" fill="#94a3b8" font-size="10">q 0</text>
  <text x="112" y="356.0" text-anchor="end" fill="#f8fafc" font-size="12" font-style="italic">The</text>
  <text x="6" y="382.0" fill="#94a3b8" font-size="10">q 1</text>
  <text x="112" y="382.0" text-anchor="end" fill="#f8fafc" font-size="12" font-style="italic">quick</text>
  <text x="6" y="408.0" fill="#94a3b8" font-size="10">q 2</text>
  <text x="112" y="408.0" text-anchor="end" fill="#f8fafc" font-size="12" font-style="italic">brown</text>
  <text x="6" y="434.0" fill="#94a3b8" font-size="10">q 3</text>
  <text x="112" y="434.0" text-anchor="end" fill="#f8fafc" font-size="12" font-style="italic">fox</text>
  <text x="6" y="460.0" fill="#94a3b8" font-size="10">q 4</text>
  <text x="112" y="460.0" text-anchor="end" fill="#f8fafc" font-size="12" font-style="italic">jumps</text>
  <text x="6" y="486.0" fill="#94a3b8" font-size="10">q 5</text>
  <text x="112" y="486.0" text-anchor="end" fill="#f8fafc" font-size="12" font-style="italic">over</text>
  <text x="6" y="512.0" fill="#94a3b8" font-size="10">q 6</text>
  <text x="112" y="512.0" text-anchor="end" fill="#f8fafc" font-size="12" font-style="italic">the</text>
  <text x="6" y="538.0" fill="#94a3b8" font-size="10">q 7</text>
  <text x="112" y="538.0" text-anchor="end" fill="#f8fafc" font-size="12" font-style="italic">lazy</text>
  <text x="6" y="564.0" fill="#94a3b8" font-size="10">q 8</text>
  <text x="112" y="564.0" text-anchor="end" fill="#f8fafc" font-size="12" font-style="italic">dog</text>
  <text x="6" y="590.0" fill="#94a3b8" font-size="10">q 9</text>
  <text x="112" y="590.0" text-anchor="end" fill="#f8fafc" font-size="12" font-style="italic">ate</text>
  <text x="6" y="616.0" fill="#94a3b8" font-size="10">q10</text>
  <text x="112" y="616.0" text-anchor="end" fill="#f8fafc" font-size="12" font-style="italic">a</text>
  <text x="6" y="642.0" fill="#94a3b8" font-size="10">q11</text>
  <text x="112" y="642.0" text-anchor="end" fill="#f8fafc" font-size="12" font-style="italic">small</text>
  <text x="6" y="668.0" fill="#94a3b8" font-size="10">q12</text>
  <text x="112" y="668.0" text-anchor="end" fill="#f8fafc" font-size="12" font-style="italic">red</text>
  <text x="6" y="694.0" fill="#94a3b8" font-size="10">q13</text>
  <text x="112" y="694.0" text-anchor="end" fill="#f8fafc" font-size="12" font-style="italic">fish</text>
  <text x="6" y="720.0" fill="#94a3b8" font-size="10">q14</text>
  <text x="112" y="720.0" text-anchor="end" fill="#f8fafc" font-size="12" font-style="italic">this</text>
  <text x="6" y="746.0" fill="#94a3b8" font-size="10">q15</text>
  <text x="112" y="746.0" text-anchor="end" fill="#f8fafc" font-size="12" font-style="italic">morning</text>
  <line x1="538.0" y1="312" x2="538.0" y2="754.0" stroke="#475569" stroke-width="1" stroke-dasharray="4 3" />
  <rect x="120.0" y="340" width="24.0" height="24" rx="3" ry="3" fill="#22c55e" />
  <rect x="146.0" y="340" width="24.0" height="24" rx="3" ry="3" fill="#1e293b" />
  <rect x="172.0" y="340" width="24.0" height="24" rx="3" ry="3" fill="#1e293b" />
  <rect x="198.0" y="340" width="24.0" height="24" rx="3" ry="3" fill="#1e293b" />
  <rect x="224.0" y="340" width="24.0" height="24" rx="3" ry="3" fill="#1e293b" />
  <rect x="250.0" y="340" width="24.0" height="24" rx="3" ry="3" fill="#1e293b" />
  <rect x="276.0" y="340" width="24.0" height="24" rx="3" ry="3" fill="#1e293b" />
  <rect x="302.0" y="340" width="24.0" height="24" rx="3" ry="3" fill="#1e293b" />
  <rect x="328.0" y="340" width="24.0" height="24" rx="3" ry="3" fill="#1e293b" />
  <rect x="354.0" y="340" width="24.0" height="24" rx="3" ry="3" fill="#1e293b" />
  <rect x="380.0" y="340" width="24.0" height="24" rx="3" ry="3" fill="#1e293b" />
  <rect x="406.0" y="340" width="24.0" height="24" rx="3" ry="3" fill="#1e293b" />
  <rect x="432.0" y="340" width="24.0" height="24" rx="3" ry="3" fill="#1e293b" />
  <rect x="458.0" y="340" width="24.0" height="24" rx="3" ry="3" fill="#1e293b" />
  <rect x="484.0" y="340" width="24.0" height="24" rx="3" ry="3" fill="#1e293b" />
  <rect x="510.0" y="340" width="24.0" height="24" rx="3" ry="3" fill="#1e293b" />
  <rect x="544.0" y="340" width="206.0" height="24" rx="3" ry="3" fill="#1e293b" />
  <rect x="776.0" y="340" width="206.0" height="24" rx="3" ry="3" fill="#1e293b" />
  <rect x="120.0" y="366" width="24.0" height="24" rx="3" ry="3" fill="#22c55e" />
  <rect x="146.0" y="366" width="24.0" height="24" rx="3" ry="3" fill="#22c55e" />
  <rect x="172.0" y="366" width="24.0" height="24" rx="3" ry="3" fill="#1e293b" />
  <rect x="198.0" y="366" width="24.0" height="24" rx="3" ry="3" fill="#1e293b" />
  <rect x="224.0" y="366" width="24.0" height="24" rx="3" ry="3" fill="#1e293b" />
  <rect x="250.0" y="366" width="24.0" height="24" rx="3" ry="3" fill="#1e293b" />
  <rect x="276.0" y="366" width="24.0" height="24" rx="3" ry="3" fill="#1e293b" />
  <rect x="302.0" y="366" width="24.0" height="24" rx="3" ry="3" fill="#1e293b" />
  <rect x="328.0" y="366" width="24.0" height="24" rx="3" ry="3" fill="#1e293b" />
  <rect x="354.0" y="366" width="24.0" height="24" rx="3" ry="3" fill="#1e293b" />
  <rect x="380.0" y="366" width="24.0" height="24" rx="3" ry="3" fill="#1e293b" />
  <rect x="406.0" y="366" width="24.0" height="24" rx="3" ry="3" fill="#1e293b" />
  <rect x="432.0" y="366" width="24.0" height="24" rx="3" ry="3" fill="#1e293b" />
  <rect x="458.0" y="366" width="24.0" height="24" rx="3" ry="3" fill="#1e293b" />
  <rect x="484.0" y="366" width="24.0" height="24" rx="3" ry="3" fill="#1e293b" />
  <rect x="510.0" y="366" width="24.0" height="24" rx="3" ry="3" fill="#1e293b" />
  <rect x="544.0" y="366" width="206.0" height="24" rx="3" ry="3" fill="#1e293b" />
  <rect x="776.0" y="366" width="206.0" height="24" rx="3" ry="3" fill="#1e293b" />
  <rect x="120.0" y="392" width="24.0" height="24" rx="3" ry="3" fill="#22c55e" />
  <rect x="146.0" y="392" width="24.0" height="24" rx="3" ry="3" fill="#22c55e" />
  <rect x="172.0" y="392" width="24.0" height="24" rx="3" ry="3" fill="#22c55e" />
  <rect x="198.0" y="392" width="24.0" height="24" rx="3" ry="3" fill="#1e293b" />
  <rect x="224.0" y="392" width="24.0" height="24" rx="3" ry="3" fill="#1e293b" />
  <rect x="250.0" y="392" width="24.0" height="24" rx="3" ry="3" fill="#1e293b" />
  <rect x="276.0" y="392" width="24.0" height="24" rx="3" ry="3" fill="#1e293b" />
  <rect x="302.0" y="392" width="24.0" height="24" rx="3" ry="3" fill="#1e293b" />
  <rect x="328.0" y="392" width="24.0" height="24" rx="3" ry="3" fill="#1e293b" />
  <rect x="354.0" y="392" width="24.0" height="24" rx="3" ry="3" fill="#1e293b" />
  <rect x="380.0" y="392" width="24.0" height="24" rx="3" ry="3" fill="#1e293b" />
  <rect x="406.0" y="392" width="24.0" height="24" rx="3" ry="3" fill="#1e293b" />
  <rect x="432.0" y="392" width="24.0" height="24" rx="3" ry="3" fill="#1e293b" />
  <rect x="458.0" y="392" width="24.0" height="24" rx="3" ry="3" fill="#1e293b" />
  <rect x="484.0" y="392" width="24.0" height="24" rx="3" ry="3" fill="#1e293b" />
  <rect x="510.0" y="392" width="24.0" height="24" rx="3" ry="3" fill="#1e293b" />
  <rect x="544.0" y="392" width="206.0" height="24" rx="3" ry="3" fill="#1e293b" />
  <rect x="776.0" y="392" width="206.0" height="24" rx="3" ry="3" fill="#1e293b" />
  <rect x="120.0" y="418" width="24.0" height="24" rx="3" ry="3" fill="#22c55e" />
  <rect x="146.0" y="418" width="24.0" height="24" rx="3" ry="3" fill="#22c55e" />
  <rect x="172.0" y="418" width="24.0" height="24" rx="3" ry="3" fill="#22c55e" />
  <rect x="198.0" y="418" width="24.0" height="24" rx="3" ry="3" fill="#22c55e" />
  <rect x="224.0" y="418" width="24.0" height="24" rx="3" ry="3" fill="#1e293b" />
  <rect x="250.0" y="418" width="24.0" height="24" rx="3" ry="3" fill="#1e293b" />
  <rect x="276.0" y="418" width="24.0" height="24" rx="3" ry="3" fill="#1e293b" />
  <rect x="302.0" y="418" width="24.0" height="24" rx="3" ry="3" fill="#1e293b" />
  <rect x="328.0" y="418" width="24.0" height="24" rx="3" ry="3" fill="#1e293b" />
  <rect x="354.0" y="418" width="24.0" height="24" rx="3" ry="3" fill="#1e293b" />
  <rect x="380.0" y="418" width="24.0" height="24" rx="3" ry="3" fill="#1e293b" />
  <rect x="406.0" y="418" width="24.0" height="24" rx="3" ry="3" fill="#1e293b" />
  <rect x="432.0" y="418" width="24.0" height="24" rx="3" ry="3" fill="#1e293b" />
  <rect x="458.0" y="418" width="24.0" height="24" rx="3" ry="3" fill="#1e293b" />
  <rect x="484.0" y="418" width="24.0" height="24" rx="3" ry="3" fill="#1e293b" />
  <rect x="510.0" y="418" width="24.0" height="24" rx="3" ry="3" fill="#1e293b" />
  <rect x="544.0" y="418" width="206.0" height="24" rx="3" ry="3" fill="#1e293b" />
  <rect x="776.0" y="418" width="206.0" height="24" rx="3" ry="3" fill="#1e293b" />
  <rect x="120.0" y="444" width="24.0" height="24" rx="3" ry="3" fill="#22c55e" />
  <rect x="146.0" y="444" width="24.0" height="24" rx="3" ry="3" fill="#22c55e" />
  <rect x="172.0" y="444" width="24.0" height="24" rx="3" ry="3" fill="#22c55e" />
  <rect x="198.0" y="444" width="24.0" height="24" rx="3" ry="3" fill="#22c55e" />
  <rect x="224.0" y="444" width="24.0" height="24" rx="3" ry="3" fill="#22c55e" />
  <rect x="250.0" y="444" width="24.0" height="24" rx="3" ry="3" fill="#1e293b" />
  <rect x="276.0" y="444" width="24.0" height="24" rx="3" ry="3" fill="#1e293b" />
  <rect x="302.0" y="444" width="24.0" height="24" rx="3" ry="3" fill="#1e293b" />
  <rect x="328.0" y="444" width="24.0" height="24" rx="3" ry="3" fill="#1e293b" />
  <rect x="354.0" y="444" width="24.0" height="24" rx="3" ry="3" fill="#1e293b" />
  <rect x="380.0" y="444" width="24.0" height="24" rx="3" ry="3" fill="#1e293b" />
  <rect x="406.0" y="444" width="24.0" height="24" rx="3" ry="3" fill="#1e293b" />
  <rect x="432.0" y="444" width="24.0" height="24" rx="3" ry="3" fill="#1e293b" />
  <rect x="458.0" y="444" width="24.0" height="24" rx="3" ry="3" fill="#1e293b" />
  <rect x="484.0" y="444" width="24.0" height="24" rx="3" ry="3" fill="#1e293b" />
  <rect x="510.0" y="444" width="24.0" height="24" rx="3" ry="3" fill="#1e293b" />
  <rect x="544.0" y="444" width="206.0" height="24" rx="3" ry="3" fill="#1e293b" />
  <rect x="776.0" y="444" width="206.0" height="24" rx="3" ry="3" fill="#1e293b" />
  <rect x="120.0" y="470" width="24.0" height="24" rx="3" ry="3" fill="#22c55e" />
  <rect x="146.0" y="470" width="24.0" height="24" rx="3" ry="3" fill="#22c55e" />
  <rect x="172.0" y="470" width="24.0" height="24" rx="3" ry="3" fill="#22c55e" />
  <rect x="198.0" y="470" width="24.0" height="24" rx="3" ry="3" fill="#22c55e" />
  <rect x="224.0" y="470" width="24.0" height="24" rx="3" ry="3" fill="#22c55e" />
  <rect x="250.0" y="470" width="24.0" height="24" rx="3" ry="3" fill="#22c55e" />
  <rect x="276.0" y="470" width="24.0" height="24" rx="3" ry="3" fill="#1e293b" />
  <rect x="302.0" y="470" width="24.0" height="24" rx="3" ry="3" fill="#1e293b" />
  <rect x="328.0" y="470" width="24.0" height="24" rx="3" ry="3" fill="#1e293b" />
  <rect x="354.0" y="470" width="24.0" height="24" rx="3" ry="3" fill="#1e293b" />
  <rect x="380.0" y="470" width="24.0" height="24" rx="3" ry="3" fill="#1e293b" />
  <rect x="406.0" y="470" width="24.0" height="24" rx="3" ry="3" fill="#1e293b" />
  <rect x="432.0" y="470" width="24.0" height="24" rx="3" ry="3" fill="#1e293b" />
  <rect x="458.0" y="470" width="24.0" height="24" rx="3" ry="3" fill="#1e293b" />
  <rect x="484.0" y="470" width="24.0" height="24" rx="3" ry="3" fill="#1e293b" />
  <rect x="510.0" y="470" width="24.0" height="24" rx="3" ry="3" fill="#1e293b" />
  <rect x="544.0" y="470" width="206.0" height="24" rx="3" ry="3" fill="#1e293b" />
  <rect x="776.0" y="470" width="206.0" height="24" rx="3" ry="3" fill="#1e293b" />
  <rect x="120.0" y="496" width="24.0" height="24" rx="3" ry="3" fill="#22c55e" />
  <rect x="146.0" y="496" width="24.0" height="24" rx="3" ry="3" fill="#22c55e" />
  <rect x="172.0" y="496" width="24.0" height="24" rx="3" ry="3" fill="#22c55e" />
  <rect x="198.0" y="496" width="24.0" height="24" rx="3" ry="3" fill="#22c55e" />
  <rect x="224.0" y="496" width="24.0" height="24" rx="3" ry="3" fill="#22c55e" />
  <rect x="250.0" y="496" width="24.0" height="24" rx="3" ry="3" fill="#22c55e" />
  <rect x="276.0" y="496" width="24.0" height="24" rx="3" ry="3" fill="#22c55e" />
  <rect x="302.0" y="496" width="24.0" height="24" rx="3" ry="3" fill="#1e293b" />
  <rect x="328.0" y="496" width="24.0" height="24" rx="3" ry="3" fill="#1e293b" />
  <rect x="354.0" y="496" width="24.0" height="24" rx="3" ry="3" fill="#1e293b" />
  <rect x="380.0" y="496" width="24.0" height="24" rx="3" ry="3" fill="#1e293b" />
  <rect x="406.0" y="496" width="24.0" height="24" rx="3" ry="3" fill="#1e293b" />
  <rect x="432.0" y="496" width="24.0" height="24" rx="3" ry="3" fill="#1e293b" />
  <rect x="458.0" y="496" width="24.0" height="24" rx="3" ry="3" fill="#1e293b" />
  <rect x="484.0" y="496" width="24.0" height="24" rx="3" ry="3" fill="#1e293b" />
  <rect x="510.0" y="496" width="24.0" height="24" rx="3" ry="3" fill="#1e293b" />
  <rect x="544.0" y="496" width="206.0" height="24" rx="3" ry="3" fill="#1e293b" />
  <rect x="776.0" y="496" width="206.0" height="24" rx="3" ry="3" fill="#1e293b" />
  <rect x="120.0" y="522" width="24.0" height="24" rx="3" ry="3" fill="#22c55e" />
  <rect x="146.0" y="522" width="24.0" height="24" rx="3" ry="3" fill="#22c55e" />
  <rect x="172.0" y="522" width="24.0" height="24" rx="3" ry="3" fill="#22c55e" />
  <rect x="198.0" y="522" width="24.0" height="24" rx="3" ry="3" fill="#22c55e" />
  <rect x="224.0" y="522" width="24.0" height="24" rx="3" ry="3" fill="#22c55e" />
  <rect x="250.0" y="522" width="24.0" height="24" rx="3" ry="3" fill="#22c55e" />
  <rect x="276.0" y="522" width="24.0" height="24" rx="3" ry="3" fill="#22c55e" />
  <rect x="302.0" y="522" width="24.0" height="24" rx="3" ry="3" fill="#22c55e" />
  <rect x="328.0" y="522" width="24.0" height="24" rx="3" ry="3" fill="#1e293b" />
  <rect x="354.0" y="522" width="24.0" height="24" rx="3" ry="3" fill="#1e293b" />
  <rect x="380.0" y="522" width="24.0" height="24" rx="3" ry="3" fill="#1e293b" />
  <rect x="406.0" y="522" width="24.0" height="24" rx="3" ry="3" fill="#1e293b" />
  <rect x="432.0" y="522" width="24.0" height="24" rx="3" ry="3" fill="#1e293b" />
  <rect x="458.0" y="522" width="24.0" height="24" rx="3" ry="3" fill="#1e293b" />
  <rect x="484.0" y="522" width="24.0" height="24" rx="3" ry="3" fill="#1e293b" />
  <rect x="510.0" y="522" width="24.0" height="24" rx="3" ry="3" fill="#1e293b" />
  <rect x="544.0" y="522" width="206.0" height="24" rx="3" ry="3" fill="#22c55e" />
  <rect x="776.0" y="522" width="206.0" height="24" rx="3" ry="3" fill="#1e293b" />
  <rect x="120.0" y="548" width="24.0" height="24" rx="3" ry="3" fill="#1e293b" />
  <rect x="146.0" y="548" width="24.0" height="24" rx="3" ry="3" fill="#22c55e" />
  <rect x="172.0" y="548" width="24.0" height="24" rx="3" ry="3" fill="#22c55e" />
  <rect x="198.0" y="548" width="24.0" height="24" rx="3" ry="3" fill="#22c55e" />
  <rect x="224.0" y="548" width="24.0" height="24" rx="3" ry="3" fill="#22c55e" />
  <rect x="250.0" y="548" width="24.0" height="24" rx="3" ry="3" fill="#22c55e" />
  <rect x="276.0" y="548" width="24.0" height="24" rx="3" ry="3" fill="#22c55e" />
  <rect x="302.0" y="548" width="24.0" height="24" rx="3" ry="3" fill="#22c55e" />
  <rect x="328.0" y="548" width="24.0" height="24" rx="3" ry="3" fill="#22c55e" />
  <rect x="354.0" y="548" width="24.0" height="24" rx="3" ry="3" fill="#1e293b" />
  <rect x="380.0" y="548" width="24.0" height="24" rx="3" ry="3" fill="#1e293b" />
  <rect x="406.0" y="548" width="24.0" height="24" rx="3" ry="3" fill="#1e293b" />
  <rect x="432.0" y="548" width="24.0" height="24" rx="3" ry="3" fill="#1e293b" />
  <rect x="458.0" y="548" width="24.0" height="24" rx="3" ry="3" fill="#1e293b" />
  <rect x="484.0" y="548" width="24.0" height="24" rx="3" ry="3" fill="#1e293b" />
  <rect x="510.0" y="548" width="24.0" height="24" rx="3" ry="3" fill="#1e293b" />
  <rect x="544.0" y="548" width="206.0" height="24" rx="3" ry="3" fill="#22c55e" />
  <rect x="776.0" y="548" width="206.0" height="24" rx="3" ry="3" fill="#1e293b" />
  <rect x="120.0" y="574" width="24.0" height="24" rx="3" ry="3" fill="#1e293b" />
  <rect x="146.0" y="574" width="24.0" height="24" rx="3" ry="3" fill="#1e293b" />
  <rect x="172.0" y="574" width="24.0" height="24" rx="3" ry="3" fill="#22c55e" />
  <rect x="198.0" y="574" width="24.0" height="24" rx="3" ry="3" fill="#22c55e" />
  <rect x="224.0" y="574" width="24.0" height="24" rx="3" ry="3" fill="#22c55e" />
  <rect x="250.0" y="574" width="24.0" height="24" rx="3" ry="3" fill="#22c55e" />
  <rect x="276.0" y="574" width="24.0" height="24" rx="3" ry="3" fill="#22c55e" />
  <rect x="302.0" y="574" width="24.0" height="24" rx="3" ry="3" fill="#22c55e" />
  <rect x="328.0" y="574" width="24.0" height="24" rx="3" ry="3" fill="#22c55e" />
  <rect x="354.0" y="574" width="24.0" height="24" rx="3" ry="3" fill="#22c55e" />
  <rect x="380.0" y="574" width="24.0" height="24" rx="3" ry="3" fill="#1e293b" />
  <rect x="406.0" y="574" width="24.0" height="24" rx="3" ry="3" fill="#1e293b" />
  <rect x="432.0" y="574" width="24.0" height="24" rx="3" ry="3" fill="#1e293b" />
  <rect x="458.0" y="574" width="24.0" height="24" rx="3" ry="3" fill="#1e293b" />
  <rect x="484.0" y="574" width="24.0" height="24" rx="3" ry="3" fill="#1e293b" />
  <rect x="510.0" y="574" width="24.0" height="24" rx="3" ry="3" fill="#1e293b" />
  <rect x="544.0" y="574" width="206.0" height="24" rx="3" ry="3" fill="#22c55e" />
  <rect x="776.0" y="574" width="206.0" height="24" rx="3" ry="3" fill="#1e293b" />
  <rect x="120.0" y="600" width="24.0" height="24" rx="3" ry="3" fill="#1e293b" />
  <rect x="146.0" y="600" width="24.0" height="24" rx="3" ry="3" fill="#1e293b" />
  <rect x="172.0" y="600" width="24.0" height="24" rx="3" ry="3" fill="#1e293b" />
  <rect x="198.0" y="600" width="24.0" height="24" rx="3" ry="3" fill="#22c55e" />
  <rect x="224.0" y="600" width="24.0" height="24" rx="3" ry="3" fill="#22c55e" />
  <rect x="250.0" y="600" width="24.0" height="24" rx="3" ry="3" fill="#22c55e" />
  <rect x="276.0" y="600" width="24.0" height="24" rx="3" ry="3" fill="#22c55e" />
  <rect x="302.0" y="600" width="24.0" height="24" rx="3" ry="3" fill="#22c55e" />
  <rect x="328.0" y="600" width="24.0" height="24" rx="3" ry="3" fill="#22c55e" />
  <rect x="354.0" y="600" width="24.0" height="24" rx="3" ry="3" fill="#22c55e" />
  <rect x="380.0" y="600" width="24.0" height="24" rx="3" ry="3" fill="#22c55e" />
  <rect x="406.0" y="600" width="24.0" height="24" rx="3" ry="3" fill="#1e293b" />
  <rect x="432.0" y="600" width="24.0" height="24" rx="3" ry="3" fill="#1e293b" />
  <rect x="458.0" y="600" width="24.0" height="24" rx="3" ry="3" fill="#1e293b" />
  <rect x="484.0" y="600" width="24.0" height="24" rx="3" ry="3" fill="#1e293b" />
  <rect x="510.0" y="600" width="24.0" height="24" rx="3" ry="3" fill="#1e293b" />
  <rect x="544.0" y="600" width="206.0" height="24" rx="3" ry="3" fill="#22c55e" />
  <rect x="776.0" y="600" width="206.0" height="24" rx="3" ry="3" fill="#1e293b" />
  <rect x="120.0" y="626" width="24.0" height="24" rx="3" ry="3" fill="#1e293b" />
  <rect x="146.0" y="626" width="24.0" height="24" rx="3" ry="3" fill="#1e293b" />
  <rect x="172.0" y="626" width="24.0" height="24" rx="3" ry="3" fill="#1e293b" />
  <rect x="198.0" y="626" width="24.0" height="24" rx="3" ry="3" fill="#1e293b" />
  <rect x="224.0" y="626" width="24.0" height="24" rx="3" ry="3" fill="#22c55e" />
  <rect x="250.0" y="626" width="24.0" height="24" rx="3" ry="3" fill="#22c55e" />
  <rect x="276.0" y="626" width="24.0" height="24" rx="3" ry="3" fill="#22c55e" />
  <rect x="302.0" y="626" width="24.0" height="24" rx="3" ry="3" fill="#22c55e" />
  <rect x="328.0" y="626" width="24.0" height="24" rx="3" ry="3" fill="#22c55e" />
  <rect x="354.0" y="626" width="24.0" height="24" rx="3" ry="3" fill="#22c55e" />
  <rect x="380.0" y="626" width="24.0" height="24" rx="3" ry="3" fill="#22c55e" />
  <rect x="406.0" y="626" width="24.0" height="24" rx="3" ry="3" fill="#22c55e" />
  <rect x="432.0" y="626" width="24.0" height="24" rx="3" ry="3" fill="#1e293b" />
  <rect x="458.0" y="626" width="24.0" height="24" rx="3" ry="3" fill="#1e293b" />
  <rect x="484.0" y="626" width="24.0" height="24" rx="3" ry="3" fill="#1e293b" />
  <rect x="510.0" y="626" width="24.0" height="24" rx="3" ry="3" fill="#1e293b" />
  <rect x="544.0" y="626" width="206.0" height="24" rx="3" ry="3" fill="#22c55e" />
  <rect x="776.0" y="626" width="206.0" height="24" rx="3" ry="3" fill="#1e293b" />
  <rect x="120.0" y="652" width="24.0" height="24" rx="3" ry="3" fill="#1e293b" />
  <rect x="146.0" y="652" width="24.0" height="24" rx="3" ry="3" fill="#1e293b" />
  <rect x="172.0" y="652" width="24.0" height="24" rx="3" ry="3" fill="#1e293b" />
  <rect x="198.0" y="652" width="24.0" height="24" rx="3" ry="3" fill="#1e293b" />
  <rect x="224.0" y="652" width="24.0" height="24" rx="3" ry="3" fill="#1e293b" />
  <rect x="250.0" y="652" width="24.0" height="24" rx="3" ry="3" fill="#22c55e" />
  <rect x="276.0" y="652" width="24.0" height="24" rx="3" ry="3" fill="#22c55e" />
  <rect x="302.0" y="652" width="24.0" height="24" rx="3" ry="3" fill="#22c55e" />
  <rect x="328.0" y="652" width="24.0" height="24" rx="3" ry="3" fill="#22c55e" />
  <rect x="354.0" y="652" width="24.0" height="24" rx="3" ry="3" fill="#22c55e" />
  <rect x="380.0" y="652" width="24.0" height="24" rx="3" ry="3" fill="#22c55e" />
  <rect x="406.0" y="652" width="24.0" height="24" rx="3" ry="3" fill="#22c55e" />
  <rect x="432.0" y="652" width="24.0" height="24" rx="3" ry="3" fill="#22c55e" />
  <rect x="458.0" y="652" width="24.0" height="24" rx="3" ry="3" fill="#1e293b" />
  <rect x="484.0" y="652" width="24.0" height="24" rx="3" ry="3" fill="#1e293b" />
  <rect x="510.0" y="652" width="24.0" height="24" rx="3" ry="3" fill="#1e293b" />
  <rect x="544.0" y="652" width="206.0" height="24" rx="3" ry="3" fill="#22c55e" />
  <rect x="776.0" y="652" width="206.0" height="24" rx="3" ry="3" fill="#1e293b" />
  <rect x="120.0" y="678" width="24.0" height="24" rx="3" ry="3" fill="#1e293b" />
  <rect x="146.0" y="678" width="24.0" height="24" rx="3" ry="3" fill="#1e293b" />
  <rect x="172.0" y="678" width="24.0" height="24" rx="3" ry="3" fill="#1e293b" />
  <rect x="198.0" y="678" width="24.0" height="24" rx="3" ry="3" fill="#1e293b" />
  <rect x="224.0" y="678" width="24.0" height="24" rx="3" ry="3" fill="#1e293b" />
  <rect x="250.0" y="678" width="24.0" height="24" rx="3" ry="3" fill="#1e293b" />
  <rect x="276.0" y="678" width="24.0" height="24" rx="3" ry="3" fill="#22c55e" />
  <rect x="302.0" y="678" width="24.0" height="24" rx="3" ry="3" fill="#22c55e" />
  <rect x="328.0" y="678" width="24.0" height="24" rx="3" ry="3" fill="#22c55e" />
  <rect x="354.0" y="678" width="24.0" height="24" rx="3" ry="3" fill="#22c55e" />
  <rect x="380.0" y="678" width="24.0" height="24" rx="3" ry="3" fill="#22c55e" />
  <rect x="406.0" y="678" width="24.0" height="24" rx="3" ry="3" fill="#22c55e" />
  <rect x="432.0" y="678" width="24.0" height="24" rx="3" ry="3" fill="#22c55e" />
  <rect x="458.0" y="678" width="24.0" height="24" rx="3" ry="3" fill="#22c55e" />
  <rect x="484.0" y="678" width="24.0" height="24" rx="3" ry="3" fill="#1e293b" />
  <rect x="510.0" y="678" width="24.0" height="24" rx="3" ry="3" fill="#1e293b" />
  <rect x="544.0" y="678" width="206.0" height="24" rx="3" ry="3" fill="#22c55e" />
  <rect x="776.0" y="678" width="206.0" height="24" rx="3" ry="3" fill="#1e293b" />
  <rect x="120.0" y="704" width="24.0" height="24" rx="3" ry="3" fill="#1e293b" />
  <rect x="146.0" y="704" width="24.0" height="24" rx="3" ry="3" fill="#1e293b" />
  <rect x="172.0" y="704" width="24.0" height="24" rx="3" ry="3" fill="#1e293b" />
  <rect x="198.0" y="704" width="24.0" height="24" rx="3" ry="3" fill="#1e293b" />
  <rect x="224.0" y="704" width="24.0" height="24" rx="3" ry="3" fill="#1e293b" />
  <rect x="250.0" y="704" width="24.0" height="24" rx="3" ry="3" fill="#1e293b" />
  <rect x="276.0" y="704" width="24.0" height="24" rx="3" ry="3" fill="#1e293b" />
  <rect x="302.0" y="704" width="24.0" height="24" rx="3" ry="3" fill="#22c55e" />
  <rect x="328.0" y="704" width="24.0" height="24" rx="3" ry="3" fill="#22c55e" />
  <rect x="354.0" y="704" width="24.0" height="24" rx="3" ry="3" fill="#22c55e" />
  <rect x="380.0" y="704" width="24.0" height="24" rx="3" ry="3" fill="#22c55e" />
  <rect x="406.0" y="704" width="24.0" height="24" rx="3" ry="3" fill="#22c55e" />
  <rect x="432.0" y="704" width="24.0" height="24" rx="3" ry="3" fill="#22c55e" />
  <rect x="458.0" y="704" width="24.0" height="24" rx="3" ry="3" fill="#22c55e" />
  <rect x="484.0" y="704" width="24.0" height="24" rx="3" ry="3" fill="#22c55e" />
  <rect x="510.0" y="704" width="24.0" height="24" rx="3" ry="3" fill="#1e293b" />
  <rect x="544.0" y="704" width="206.0" height="24" rx="3" ry="3" fill="#22c55e" />
  <rect x="776.0" y="704" width="206.0" height="24" rx="3" ry="3" fill="#1e293b" />
  <rect x="120.0" y="730" width="24.0" height="24" rx="3" ry="3" fill="#1e293b" />
  <rect x="146.0" y="730" width="24.0" height="24" rx="3" ry="3" fill="#1e293b" />
  <rect x="172.0" y="730" width="24.0" height="24" rx="3" ry="3" fill="#1e293b" />
  <rect x="198.0" y="730" width="24.0" height="24" rx="3" ry="3" fill="#1e293b" />
  <rect x="224.0" y="730" width="24.0" height="24" rx="3" ry="3" fill="#1e293b" />
  <rect x="250.0" y="730" width="24.0" height="24" rx="3" ry="3" fill="#1e293b" />
  <rect x="276.0" y="730" width="24.0" height="24" rx="3" ry="3" fill="#1e293b" />
  <rect x="302.0" y="730" width="24.0" height="24" rx="3" ry="3" fill="#1e293b" />
  <rect x="328.0" y="730" width="24.0" height="24" rx="3" ry="3" fill="#22c55e" />
  <rect x="354.0" y="730" width="24.0" height="24" rx="3" ry="3" fill="#22c55e" />
  <rect x="380.0" y="730" width="24.0" height="24" rx="3" ry="3" fill="#22c55e" />
  <rect x="406.0" y="730" width="24.0" height="24" rx="3" ry="3" fill="#22c55e" />
  <rect x="432.0" y="730" width="24.0" height="24" rx="3" ry="3" fill="#22c55e" />
  <rect x="458.0" y="730" width="24.0" height="24" rx="3" ry="3" fill="#22c55e" />
  <rect x="484.0" y="730" width="24.0" height="24" rx="3" ry="3" fill="#22c55e" />
  <rect x="510.0" y="730" width="24.0" height="24" rx="3" ry="3" fill="#22c55e" />
  <rect x="544.0" y="730" width="206.0" height="24" rx="3" ry="3" fill="#22c55e" />
  <rect x="776.0" y="730" width="206.0" height="24" rx="3" ry="3" fill="#22c55e" />
  <rect x="120" y="772" width="14" height="14" rx="3" ry="3" fill="#22c55e" />
  <text x="140" y="784" fill="#f8fafc">attended-to</text>
  <rect x="235.5" y="772" width="14" height="14" rx="3" ry="3" fill="#1e293b" />
  <text x="255.5" y="784" fill="#f8fafc">masked (not causally ready)</text>
</svg>