<svg clip-rule="evenodd" fill-rule="evenodd" stroke-linejoin="round" stroke-miterlimit="2" viewBox="0 0 127 118" xmlns="http://www.w3.org/2000/svg" xmlns:xlink="http://www.w3.org/1999/xlink"><clipPath id="a"><path clip-rule="nonzero" d="m62 75.052c13.105 0 17.333-11.684 17.333-17.684 0-3.118-2.096-2.136-5.453-.474-3.103 1.536-7.282 3.653-11.88 3.653-9.573 0-17.333-9.179-17.333-3.179s4.228 17.684 17.333 17.684z"/></clipPath><path d="m125.057 93.44c1 2.88.76 5.947-.573 8.613-.96 1.947-2.333 3.454-4.013 4.8-2.027 1.6-4.547 2.96-7.587 4.267-3.627 1.547-8.053 3-10.08 3.533-5.187 1.347-10.173 2.2-15.227 2.24-7.226.067-13.453-1.64-17.88-6-2.293.28-4.613.44-6.946.44-2.214 0-4.4-.133-6.574-.4-4.44 4.334-10.64 6.027-17.84 5.96-5.053-.04-10.04-.893-15.24-2.24-2.013-.533-6.44-1.986-10.066-3.533-3.04-1.307-5.56-2.667-7.574-4.267-1.693-1.346-3.066-2.853-4.026-4.8-1.32-2.666-1.574-5.733-.56-8.613-.934-2.2-1.174-4.72-.44-7.507.333-1.266.88-2.44 1.573-3.48-.147-.546-.267-1.106-.347-1.72-.506-3.653.76-6.986 3.147-9.573 1.173-1.293 2.44-2.187 3.76-2.76-.973-4.133-1.48-8.387-1.48-12.733 0-30.747 24.92-55.667 55.667-55.667 10.56 0 20.44 2.933 28.866 8.053 1.52.934 3.014 1.934 4.44 3 .707.534 1.414 1.08 2.094 1.654.693.56 1.373 1.146 2.026 1.746 1.974 1.8 3.827 3.734 5.52 5.8.574.68 1.12 1.387 1.654 2.107 1.08 1.427 2.08 2.907 3 4.44 1.4 2.293 2.626 4.693 3.693 7.187.707 1.666 1.32 3.373 1.867 5.12.813 2.613 1.44 5.306 1.866 8.08.134.92.254 1.853.347 2.786.187 1.867.293 3.76.293 5.694 0 4.293-.506 8.506-1.453 12.573 1.467.573 2.853 1.507 4.147 2.92 2.386 2.587 3.653 5.933 3.146 9.587-.08.6-.2 1.16-.346 1.706.693 1.04 1.24 2.214 1.573 3.48.733 2.787.493 5.307-.427 7.507" fill="#fff" fill-rule="nonzero"/><circle cx="62.333" cy="55.667" fill="#ffd21e" r="46.333"/><g fill-rule="nonzero"><path d="m108.667 55.667c0-25.59-20.744-46.334-46.334-46.334-25.589 0-46.333 20.744-46.333 46.334 0 25.589 20.744 46.333 46.333 46.333 25.59 0 46.334-20.744 46.334-46.333zm-98 0c0-28.535 23.132-51.667 51.666-51.667 28.535 0 51.667 23.132 51.667 51.667 0 28.534-23.132 51.666-51.667 51.666-28.534 0-51.666-23.132-51.666-51.666z" fill="#ffac03"/><path d="m77.387 43.055c1.7.6 2.376 4.093 4.092 3.181 3.251-1.729 4.485-5.765 2.757-9.016-1.729-3.251-5.765-4.485-9.016-2.757-3.251 1.729-4.485 5.765-2.757 9.016.816 1.535 3.406-.96 4.924-.424z" fill="#3a3b45"/><path d="m45.978 43.055c-1.699.6-2.375 4.093-4.092 3.181-3.251-1.729-4.485-5.765-2.756-9.016 1.728-3.251 5.765-4.485 9.016-2.757 3.251 1.729 4.485 5.765 2.756 9.016-.815 1.535-3.405-.96-4.924-.424z" fill="#3a3b45"/><path d="m62 75.052c13.105 0 17.333-11.684 17.333-17.684 0-3.118-2.096-2.136-5.453-.474-3.103 1.536-7.282 3.653-11.88 3.653-9.573 0-17.333-9.179-17.333-3.179s4.228 17.684 17.333 17.684z" fill="#3a3b45"/></g><g clip-path="url(#a)"><path d="m62.333 88.667c6.387 0 11.564-5.178 11.564-11.564 0-4.975-3.141-9.216-7.548-10.848-.162-.06-.326-.116-.491-.169-1.111-.355-2.296 3.464-3.525 3.464-1.148 0-2.257-3.844-3.305-3.532-4.776 1.422-8.259 5.847-8.259 11.085 0 6.386 5.178 11.564 11.564 11.564z" fill="#ef4e4e" fill-rule="nonzero"/></g><circle cx="93.667" cy="45" fill="#ffd21e" r="4.333"/><circle cx="31.667" cy="45" fill="#ffd21e" r="4.333"/><path d="m22.749 64c-2.158 0-4.088.887-5.433 2.495-.832.996-1.701 2.601-1.772 5.005-.905-.26-1.776-.405-2.589-.405-2.067 0-3.934.792-5.254 2.23-1.696 1.847-2.449 4.116-2.121 6.387.156 1.081.517 2.051 1.057 2.948-1.138.921-1.977 2.204-2.382 3.747-.318 1.209-.643 3.728 1.056 6.322-.108.17-.21.346-.304.526-1.022 1.938-1.087 4.129-.186 6.169 1.367 3.092 4.763 5.528 11.358 8.143 4.102 1.626 7.856 2.666 7.889 2.676 5.424 1.406 10.329 2.121 14.576 2.121 7.805 0 13.393-2.391 16.609-7.105 5.176-7.592 4.436-14.536-2.261-21.23-3.707-3.704-6.171-9.165-6.684-10.364-1.035-3.549-3.771-7.494-8.319-7.494h-.001c-.383 0-.769.03-1.151.09-1.992.314-3.733 1.46-4.977 3.186-1.343-1.67-2.647-2.998-3.827-3.747-1.778-1.128-3.556-1.7-5.284-1.7m0 5.333c.68 0 1.511.29 2.427.871 2.844 1.804 8.332 11.237 10.341 14.907.674 1.229 1.824 1.749 2.86 1.749 2.056 0 3.662-2.044.188-4.641-5.222-3.908-3.39-10.296-.897-10.69.109-.017.217-.025.321-.025 2.267 0 3.267 3.907 3.267 3.907s2.931 7.36 7.965 12.39c5.035 5.032 5.295 9.071 1.626 14.452-2.503 3.67-7.294 4.778-12.203 4.778-5.092 0-10.312-1.192-13.237-1.951-.144-.037-17.935-5.063-15.682-9.34.379-.719 1.003-1.007 1.788-1.007 3.174 0 8.946 4.723 11.427 4.723.555 0 .945-.236 1.105-.812 1.058-3.793-16.076-5.388-14.632-10.883.255-.972.946-1.366 1.916-1.365 4.194 0 13.602 7.375 15.574 7.375.15 0 .258-.044.317-.138.988-1.594.447-2.708-6.517-6.922-6.964-4.216-11.852-6.752-9.072-9.779.32-.349.773-.504 1.324-.504 4.228.001 14.217 9.092 14.217 9.092s2.696 2.804 4.327 2.804c.374 0 .693-.148.909-.513 1.156-1.95-10.737-10.963-11.408-14.682-.455-2.52.319-3.796 1.749-3.796" fill="#ffac03" fill-rule="nonzero"/><path d="m50.846 102.253c3.67-5.381 3.41-9.42-1.625-14.452-5.035-5.03-7.965-12.39-7.965-12.39s-1.095-4.275-3.588-3.882c-2.494.394-4.324 6.782.898 10.69 5.223 3.906-1.04 6.561-3.049 2.892-2.009-3.67-7.496-13.103-10.341-14.907-2.844-1.804-4.847-.793-4.176 2.925.67 3.719 12.565 12.732 11.408 14.683-1.158 1.949-5.236-2.292-5.236-2.292s-12.763-11.615-15.542-8.588c-2.778 3.027 2.108 5.563 9.072 9.779 6.966 4.214 7.506 5.328 6.518 6.922-.99 1.595-16.363-11.366-17.807-5.872-1.443 5.495 15.689 7.09 14.632 10.883-1.057 3.795-12.068-7.18-14.32-2.904-2.253 4.277 15.537 9.303 15.681 9.34 5.747 1.491 20.342 4.649 25.44-2.827" fill="#ffd21e" fill-rule="nonzero"/><path d="m102.584 64c2.159 0 4.088.887 5.433 2.495.832.996 1.702 2.601 1.772 5.005.906-.26 1.776-.405 2.59-.405 2.066 0 3.933.792 5.253 2.23 1.696 1.847 2.449 4.116 2.121 6.387-.156 1.081-.517 2.051-1.057 2.948 1.139.921 1.977 2.204 2.383 3.747.317 1.209.642 3.728-1.056 6.322.108.17.209.346.304.526 1.021 1.938 1.086 4.129.185 6.169-1.367 3.092-4.763 5.528-11.357 8.143-4.103 1.626-7.856 2.666-7.89 2.676-5.424 1.406-10.329 2.121-14.576 2.121-7.805 0-13.393-2.391-16.609-7.105-5.176-7.592-4.436-14.536 2.261-21.23 3.707-3.704 6.171-9.165 6.684-10.364 1.035-3.549 3.771-7.494 8.319-7.494h.001c.383 0 .77.03 1.151.09 1.992.314 3.733 1.46 4.977 3.186 1.343-1.67 2.647-2.998 3.827-3.747 1.779-1.128 3.556-1.7 5.284-1.7m0 5.333c-.68 0-1.511.29-2.427.871-2.844 1.804-8.332 11.237-10.341 14.907-.673 1.229-1.824 1.749-2.86 1.749-2.056 0-3.661-2.044-.188-4.641 5.223-3.908 3.391-10.296.897-10.69-.109-.017-.217-.025-.321-.025-2.267 0-3.267 3.907-3.267 3.907s-2.93 7.36-7.965 12.39c-5.035 5.032-5.295 9.071-1.625 14.452 2.502 3.67 7.293 4.778 12.202 4.778 5.092 0 10.312-1.192 13.238-1.951.144-.037 17.934-5.063 15.681-9.34-.379-.719-1.003-1.007-1.788-1.007-3.173 0-8.945 4.723-11.427 4.723-.554 0-.945-.236-1.105-.812-1.057-3.793 16.076-5.388 14.632-10.883-.255-.972-.945-1.366-1.916-1.365-4.193 0-13.601 7.375-15.573 7.375-.151 0-.259-.044-.318-.138-.988-1.594-.446-2.708 6.518-6.922 6.964-4.216 11.852-6.752 9.072-9.779-.32-.349-.774-.504-1.324-.504-4.228.001-14.218 9.092-14.218 9.092s-2.696 2.804-4.326 2.804c-.375 0-.694-.148-.91-.513-1.156-1.95 10.738-10.963 11.408-14.682.455-2.52-.318-3.796-1.749-3.796" fill="#ffac03" fill-rule="nonzero"/><path d="m74.487 102.253c-3.669-5.381-3.409-9.42 1.625-14.452 5.035-5.03 7.966-12.39 7.966-12.39s1.094-4.275 3.588-3.882c2.493.394 4.324 6.782-.899 10.69-5.223 3.906 1.04 6.561 3.049 2.892 2.01-3.67 7.496-13.103 10.342-14.907 2.844-1.804 4.846-.793 4.176 2.925-.671 3.719-12.566 12.732-11.408 14.683 1.157 1.949 5.236-2.292 5.236-2.292s12.762-11.615 15.541-8.588-2.108 5.563-9.072 9.779c-6.965 4.214-7.505 5.328-6.517 6.922.989 1.595 16.362-11.366 17.806-5.872 1.443 5.495-15.689 7.09-14.632 10.883 1.058 3.795 12.068-7.18 14.32-2.904 2.254 4.277-15.537 9.303-15.681 9.34-5.747 1.491-20.341 4.649-25.44-2.827" fill="#ffd21e" fill-rule="nonzero"/></svg>