<svg xmlns="http://www.w3.org/2000/svg" viewBox="0 0 656.0 842.0" width="656.0" height="842.0" preserveAspectRatio="xMinYMin meet" font-family="ui-monospace, SFMono-Regular, Menlo, monospace" font-size="11">
  <rect x="0" y="0" width="656.0" height="842.0" fill="#0b1220" />
  <text x="120" y="20" font-size="15" font-weight="600" fill="#f8fafc">MiniMax M3 Lightning Indexer mask (sparse layer)</text>
  <text x="120" y="40" fill="#94a3b8">shape=[16, 16]   keys →   queries ↓</text>
  <text x="120" y="60" fill="#22c55e">block=4 · top-k=2 blocks · local=1 block · selection is per block of keys</text>
  <text x="132.0" y="130" text-anchor="middle" fill="#94a3b8" font-size="10">0</text>
  <text x="132.0" y="192" text-anchor="start" transform="rotate(-90 132.0 192)" fill="#f8fafc" font-size="12" font-style="italic">The</text>
  <text x="158.0" y="130" text-anchor="middle" fill="#94a3b8" font-size="10">1</text>
  <text x="158.0" y="192" text-anchor="start" transform="rotate(-90 158.0 192)" fill="#f8fafc" font-size="12" font-style="italic">quick</text>
  <text x="184.0" y="130" text-anchor="middle" fill="#94a3b8" font-size="10">2</text>
  <text x="184.0" y="192" text-anchor="start" transform="rotate(-90 184.0 192)" fill="#f8fafc" font-size="12" font-style="italic">brown</text>
  <text x="210.0" y="130" text-anchor="middle" fill="#94a3b8" font-size="10">3</text>
  <text x="210.0" y="192" text-anchor="start" transform="rotate(-90 210.0 192)" fill="#f8fafc" font-size="12" font-style="italic">fox</text>
  <text x="236.0" y="130" text-anchor="middle" fill="#94a3b8" font-size="10">4</text>
  <text x="236.0" y="192" text-anchor="start" transform="rotate(-90 236.0 192)" fill="#f8fafc" font-size="12" font-style="italic">jumps</text>
  <text x="262.0" y="130" text-anchor="middle" fill="#94a3b8" font-size="10">5</text>
  <text x="262.0" y="192" text-anchor="start" transform="rotate(-90 262.0 192)" fill="#f8fafc" font-size="12" font-style="italic">over</text>
  <text x="288.0" y="130" text-anchor="middle" fill="#94a3b8" font-size="10">6</text>
  <text x="288.0" y="192" text-anchor="start" transform="rotate(-90 288.0 192)" fill="#f8fafc" font-size="12" font-style="italic">the</text>
  <text x="314.0" y="130" text-anchor="middle" fill="#94a3b8" font-size="10">7</text>
  <text x="314.0" y="192" text-anchor="start" transform="rotate(-90 314.0 192)" fill="#f8fafc" font-size="12" font-style="italic">lazy</text>
  <text x="340.0" y="130" text-anchor="middle" fill="#94a3b8" font-size="10">8</text>
  <text x="340.0" y="192" text-anchor="start" transform="rotate(-90 340.0 192)" fill="#f8fafc" font-size="12" font-style="italic">dog</text>
  <text x="366.0" y="130" text-anchor="middle" fill="#94a3b8" font-size="10">9</text>
  <text x="366.0" y="192" text-anchor="start" transform="rotate(-90 366.0 192)" fill="#f8fafc" font-size="12" font-style="italic">ate</text>
  <text x="392.0" y="130" text-anchor="middle" fill="#94a3b8" font-size="10">10</text>
  <text x="392.0" y="192" text-anchor="start" transform="rotate(-90 392.0 192)" fill="#f8fafc" font-size="12" font-style="italic">a</text>
  <text x="418.0" y="130" text-anchor="middle" fill="#94a3b8" font-size="10">11</text>
  <text x="418.0" y="192" text-anchor="start" transform="rotate(-90 418.0 192)" fill="#f8fafc" font-size="12" font-style="italic">small</text>
  <text x="444.0" y="130" text-anchor="middle" fill="#94a3b8" font-size="10">12</text>
  <text x="444.0" y="192" text-anchor="start" transform="rotate(-90 444.0 192)" fill="#f8fafc" font-size="12" font-style="italic">red</text>
  <text x="470.0" y="130" text-anchor="middle" fill="#94a3b8" font-size="10">13</text>
  <text x="470.0" y="192" text-anchor="start" transform="rotate(-90 470.0 192)" fill="#f8fafc" font-size="12" font-style="italic">fish</text>
  <text x="496.0" y="130" text-anchor="middle" fill="#94a3b8" font-size="10">14</text>
  <text x="496.0" y="192" text-anchor="start" transform="rotate(-90 496.0 192)" fill="#f8fafc" font-size="12" font-style="italic">this</text>
  <text x="522.0" y="130" text-anchor="middle" fill="#94a3b8" font-size="10">15</text>
  <text x="522.0" y="192" text-anchor="start" transform="rotate(-90 522.0 192)" fill="#f8fafc" font-size="12" font-style="italic">morning</text>
  <text x="112" y="216.0" text-anchor="end" fill="#94a3b8" font-size="10">0</text>
  <rect x="120.0" y="200.0" width="24.0" height="24.0" rx="3" ry="3" fill="#eab308" />
  <rect x="146.0" y="200.0" width="24.0" height="24.0" rx="3" ry="3" fill="#1e293b" />
  <rect x="172.0" y="200.0" width="24.0" height="24.0" rx="3" ry="3" fill="#1e293b" />
  <rect x="198.0" y="200.0" width="24.0" height="24.0" rx="3" ry="3" fill="#1e293b" />
  <rect x="224.0" y="200.0" width="24.0" height="24.0" rx="3" ry="3" fill="#1e293b" />
  <rect x="250.0" y="200.0" width="24.0" height="24.0" rx="3" ry="3" fill="#1e293b" />
  <rect x="276.0" y="200.0" width="24.0" height="24.0" rx="3" ry="3" fill="#1e293b" />
  <rect x="302.0" y="200.0" width="24.0" height="24.0" rx="3" ry="3" fill="#1e293b" />
  <rect x="328.0" y="200.0" width="24.0" height="24.0" rx="3" ry="3" fill="#1e293b" />
  <rect x="354.0" y="200.0" width="24.0" height="24.0" rx="3" ry="3" fill="#1e293b" />
  <rect x="380.0" y="200.0" width="24.0" height="24.0" rx="3" ry="3" fill="#1e293b" />
  <rect x="406.0" y="200.0" width="24.0" height="24.0" rx="3" ry="3" fill="#1e293b" />
  <rect x="432.0" y="200.0" width="24.0" height="24.0" rx="3" ry="3" fill="#1e293b" />
  <rect x="458.0" y="200.0" width="24.0" height="24.0" rx="3" ry="3" fill="#1e293b" />
  <rect x="484.0" y="200.0" width="24.0" height="24.0" rx="3" ry="3" fill="#1e293b" />
  <rect x="510.0" y="200.0" width="24.0" height="24.0" rx="3" ry="3" fill="#1e293b" />
  <text x="112" y="242.0" text-anchor="end" fill="#94a3b8" font-size="10">1</text>
  <rect x="120.0" y="226.0" width="24.0" height="24.0" rx="3" ry="3" fill="#eab308" />
  <rect x="146.0" y="226.0" width="24.0" height="24.0" rx="3" ry="3" fill="#eab308" />
  <rect x="172.0" y="226.0" width="24.0" height="24.0" rx="3" ry="3" fill="#1e293b" />
  <rect x="198.0" y="226.0" width="24.0" height="24.0" rx="3" ry="3" fill="#1e293b" />
  <rect x="224.0" y="226.0" width="24.0" height="24.0" rx="3" ry="3" fill="#1e293b" />
  <rect x="250.0" y="226.0" width="24.0" height="24.0" rx="3" ry="3" fill="#1e293b" />
  <rect x="276.0" y="226.0" width="24.0" height="24.0" rx="3" ry="3" fill="#1e293b" />
  <rect x="302.0" y="226.0" width="24.0" height="24.0" rx="3" ry="3" fill="#1e293b" />
  <rect x="328.0" y="226.0" width="24.0" height="24.0" rx="3" ry="3" fill="#1e293b" />
  <rect x="354.0" y="226.0" width="24.0" height="24.0" rx="3" ry="3" fill="#1e293b" />
  <rect x="380.0" y="226.0" width="24.0" height="24.0" rx="3" ry="3" fill="#1e293b" />
  <rect x="406.0" y="226.0" width="24.0" height="24.0" rx="3" ry="3" fill="#1e293b" />
  <rect x="432.0" y="226.0" width="24.0" height="24.0" rx="3" ry="3" fill="#1e293b" />
  <rect x="458.0" y="226.0" width="24.0" height="24.0" rx="3" ry="3" fill="#1e293b" />
  <rect x="484.0" y="226.0" width="24.0" height="24.0" rx="3" ry="3" fill="#1e293b" />
  <rect x="510.0" y="226.0" width="24.0" height="24.0" rx="3" ry="3" fill="#1e293b" />
  <text x="112" y="268.0" text-anchor="end" fill="#94a3b8" font-size="10">2</text>
  <rect x="120.0" y="252.0" width="24.0" height="24.0" rx="3" ry="3" fill="#eab308" />
  <rect x="146.0" y="252.0" width="24.0" height="24.0" rx="3" ry="3" fill="#eab308" />
  <rect x="172.0" y="252.0" width="24.0" height="24.0" rx="3" ry="3" fill="#eab308" />
  <rect x="198.0" y="252.0" width="24.0" height="24.0" rx="3" ry="3" fill="#1e293b" />
  <rect x="224.0" y="252.0" width="24.0" height="24.0" rx="3" ry="3" fill="#1e293b" />
  <rect x="250.0" y="252.0" width="24.0" height="24.0" rx="3" ry="3" fill="#1e293b" />
  <rect x="276.0" y="252.0" width="24.0" height="24.0" rx="3" ry="3" fill="#1e293b" />
  <rect x="302.0" y="252.0" width="24.0" height="24.0" rx="3" ry="3" fill="#1e293b" />
  <rect x="328.0" y="252.0" width="24.0" height="24.0" rx="3" ry="3" fill="#1e293b" />
  <rect x="354.0" y="252.0" width="24.0" height="24.0" rx="3" ry="3" fill="#1e293b" />
  <rect x="380.0" y="252.0" width="24.0" height="24.0" rx="3" ry="3" fill="#1e293b" />
  <rect x="406.0" y="252.0" width="24.0" height="24.0" rx="3" ry="3" fill="#1e293b" />
  <rect x="432.0" y="252.0" width="24.0" height="24.0" rx="3" ry="3" fill="#1e293b" />
  <rect x="458.0" y="252.0" width="24.0" height="24.0" rx="3" ry="3" fill="#1e293b" />
  <rect x="484.0" y="252.0" width="24.0" height="24.0" rx="3" ry="3" fill="#1e293b" />
  <rect x="510.0" y="252.0" width="24.0" height="24.0" rx="3" ry="3" fill="#1e293b" />
  <text x="112" y="294.0" text-anchor="end" fill="#94a3b8" font-size="10">3</text>
  <rect x="120.0" y="278.0" width="24.0" height="24.0" rx="3" ry="3" fill="#eab308" />
  <rect x="146.0" y="278.0" width="24.0" height="24.0" rx="3" ry="3" fill="#eab308" />
  <rect x="172.0" y="278.0" width="24.0" height="24.0" rx="3" ry="3" fill="#eab308" />
  <rect x="198.0" y="278.0" width="24.0" height="24.0" rx="3" ry="3" fill="#eab308" />
  <rect x="224.0" y="278.0" width="24.0" height="24.0" rx="3" ry="3" fill="#1e293b" />
  <rect x="250.0" y="278.0" width="24.0" height="24.0" rx="3" ry="3" fill="#1e293b" />
  <rect x="276.0" y="278.0" width="24.0" height="24.0" rx="3" ry="3" fill="#1e293b" />
  <rect x="302.0" y="278.0" width="24.0" height="24.0" rx="3" ry="3" fill="#1e293b" />
  <rect x="328.0" y="278.0" width="24.0" height="24.0" rx="3" ry="3" fill="#1e293b" />
  <rect x="354.0" y="278.0" width="24.0" height="24.0" rx="3" ry="3" fill="#1e293b" />
  <rect x="380.0" y="278.0" width="24.0" height="24.0" rx="3" ry="3" fill="#1e293b" />
  <rect x="406.0" y="278.0" width="24.0" height="24.0" rx="3" ry="3" fill="#1e293b" />
  <rect x="432.0" y="278.0" width="24.0" height="24.0" rx="3" ry="3" fill="#1e293b" />
  <rect x="458.0" y="278.0" width="24.0" height="24.0" rx="3" ry="3" fill="#1e293b" />
  <rect x="484.0" y="278.0" width="24.0" height="24.0" rx="3" ry="3" fill="#1e293b" />
  <rect x="510.0" y="278.0" width="24.0" height="24.0" rx="3" ry="3" fill="#1e293b" />
  <text x="112" y="320.0" text-anchor="end" fill="#94a3b8" font-size="10">4</text>
  <rect x="120.0" y="304.0" width="24.0" height="24.0" rx="3" ry="3" fill="#22c55e" />
  <rect x="146.0" y="304.0" width="24.0" height="24.0" rx="3" ry="3" fill="#22c55e" />
  <rect x="172.0" y="304.0" width="24.0" height="24.0" rx="3" ry="3" fill="#22c55e" />
  <rect x="198.0" y="304.0" width="24.0" height="24.0" rx="3" ry="3" fill="#22c55e" />
  <rect x="224.0" y="304.0" width="24.0" height="24.0" rx="3" ry="3" fill="#eab308" />
  <rect x="250.0" y="304.0" width="24.0" height="24.0" rx="3" ry="3" fill="#1e293b" />
  <rect x="276.0" y="304.0" width="24.0" height="24.0" rx="3" ry="3" fill="#1e293b" />
  <rect x="302.0" y="304.0" width="24.0" height="24.0" rx="3" ry="3" fill="#1e293b" />
  <rect x="328.0" y="304.0" width="24.0" height="24.0" rx="3" ry="3" fill="#1e293b" />
  <rect x="354.0" y="304.0" width="24.0" height="24.0" rx="3" ry="3" fill="#1e293b" />
  <rect x="380.0" y="304.0" width="24.0" height="24.0" rx="3" ry="3" fill="#1e293b" />
  <rect x="406.0" y="304.0" width="24.0" height="24.0" rx="3" ry="3" fill="#1e293b" />
  <rect x="432.0" y="304.0" width="24.0" height="24.0" rx="3" ry="3" fill="#1e293b" />
  <rect x="458.0" y="304.0" width="24.0" height="24.0" rx="3" ry="3" fill="#1e293b" />
  <rect x="484.0" y="304.0" width="24.0" height="24.0" rx="3" ry="3" fill="#1e293b" />
  <rect x="510.0" y="304.0" width="24.0" height="24.0" rx="3" ry="3" fill="#1e293b" />
  <text x="112" y="346.0" text-anchor="end" fill="#94a3b8" font-size="10">5</text>
  <rect x="120.0" y="330.0" width="24.0" height="24.0" rx="3" ry="3" fill="#22c55e" />
  <rect x="146.0" y="330.0" width="24.0" height="24.0" rx="3" ry="3" fill="#22c55e" />
  <rect x="172.0" y="330.0" width="24.0" height="24.0" rx="3" ry="3" fill="#22c55e" />
  <rect x="198.0" y="330.0" width="24.0" height="24.0" rx="3" ry="3" fill="#22c55e" />
  <rect x="224.0" y="330.0" width="24.0" height="24.0" rx="3" ry="3" fill="#eab308" />
  <rect x="250.0" y="330.0" width="24.0" height="24.0" rx="3" ry="3" fill="#eab308" />
  <rect x="276.0" y="330.0" width="24.0" height="24.0" rx="3" ry="3" fill="#1e293b" />
  <rect x="302.0" y="330.0" width="24.0" height="24.0" rx="3" ry="3" fill="#1e293b" />
  <rect x="328.0" y="330.0" width="24.0" height="24.0" rx="3" ry="3" fill="#1e293b" />
  <rect x="354.0" y="330.0" width="24.0" height="24.0" rx="3" ry="3" fill="#1e293b" />
  <rect x="380.0" y="330.0" width="24.0" height="24.0" rx="3" ry="3" fill="#1e293b" />
  <rect x="406.0" y="330.0" width="24.0" height="24.0" rx="3" ry="3" fill="#1e293b" />
  <rect x="432.0" y="330.0" width="24.0" height="24.0" rx="3" ry="3" fill="#1e293b" />
  <rect x="458.0" y="330.0" width="24.0" height="24.0" rx="3" ry="3" fill="#1e293b" />
  <rect x="484.0" y="330.0" width="24.0" height="24.0" rx="3" ry="3" fill="#1e293b" />
  <rect x="510.0" y="330.0" width="24.0" height="24.0" rx="3" ry="3" fill="#1e293b" />
  <text x="112" y="372.0" text-anchor="end" fill="#94a3b8" font-size="10">6</text>
  <rect x="120.0" y="356.0" width="24.0" height="24.0" rx="3" ry="3" fill="#22c55e" />
  <rect x="146.0" y="356.0" width="24.0" height="24.0" rx="3" ry="3" fill="#22c55e" />
  <rect x="172.0" y="356.0" width="24.0" height="24.0" rx="3" ry="3" fill="#22c55e" />
  <rect x="198.0" y="356.0" width="24.0" height="24.0" rx="3" ry="3" fill="#22c55e" />
  <rect x="224.0" y="356.0" width="24.0" height="24.0" rx="3" ry="3" fill="#eab308" />
  <rect x="250.0" y="356.0" width="24.0" height="24.0" rx="3" ry="3" fill="#eab308" />
  <rect x="276.0" y="356.0" width="24.0" height="24.0" rx="3" ry="3" fill="#eab308" />
  <rect x="302.0" y="356.0" width="24.0" height="24.0" rx="3" ry="3" fill="#1e293b" />
  <rect x="328.0" y="356.0" width="24.0" height="24.0" rx="3" ry="3" fill="#1e293b" />
  <rect x="354.0" y="356.0" width="24.0" height="24.0" rx="3" ry="3" fill="#1e293b" />
  <rect x="380.0" y="356.0" width="24.0" height="24.0" rx="3" ry="3" fill="#1e293b" />
  <rect x="406.0" y="356.0" width="24.0" height="24.0" rx="3" ry="3" fill="#1e293b" />
  <rect x="432.0" y="356.0" width="24.0" height="24.0" rx="3" ry="3" fill="#1e293b" />
  <rect x="458.0" y="356.0" width="24.0" height="24.0" rx="3" ry="3" fill="#1e293b" />
  <rect x="484.0" y="356.0" width="24.0" height="24.0" rx="3" ry="3" fill="#1e293b" />
  <rect x="510.0" y="356.0" width="24.0" height="24.0" rx="3" ry="3" fill="#1e293b" />
  <text x="112" y="398.0" text-anchor="end" fill="#94a3b8" font-size="10">7</text>
  <rect x="120.0" y="382.0" width="24.0" height="24.0" rx="3" ry="3" fill="#22c55e" />
  <rect x="146.0" y="382.0" width="24.0" height="24.0" rx="3" ry="3" fill="#22c55e" />
  <rect x="172.0" y="382.0" width="24.0" height="24.0" rx="3" ry="3" fill="#22c55e" />
  <rect x="198.0" y="382.0" width="24.0" height="24.0" rx="3" ry="3" fill="#22c55e" />
  <rect x="224.0" y="382.0" width="24.0" height="24.0" rx="3" ry="3" fill="#eab308" />
  <rect x="250.0" y="382.0" width="24.0" height="24.0" rx="3" ry="3" fill="#eab308" />
  <rect x="276.0" y="382.0" width="24.0" height="24.0" rx="3" ry="3" fill="#eab308" />
  <rect x="302.0" y="382.0" width="24.0" height="24.0" rx="3" ry="3" fill="#eab308" />
  <rect x="328.0" y="382.0" width="24.0" height="24.0" rx="3" ry="3" fill="#1e293b" />
  <rect x="354.0" y="382.0" width="24.0" height="24.0" rx="3" ry="3" fill="#1e293b" />
  <rect x="380.0" y="382.0" width="24.0" height="24.0" rx="3" ry="3" fill="#1e293b" />
  <rect x="406.0" y="382.0" width="24.0" height="24.0" rx="3" ry="3" fill="#1e293b" />
  <rect x="432.0" y="382.0" width="24.0" height="24.0" rx="3" ry="3" fill="#1e293b" />
  <rect x="458.0" y="382.0" width="24.0" height="24.0" rx="3" ry="3" fill="#1e293b" />
  <rect x="484.0" y="382.0" width="24.0" height="24.0" rx="3" ry="3" fill="#1e293b" />
  <rect x="510.0" y="382.0" width="24.0" height="24.0" rx="3" ry="3" fill="#1e293b" />
  <text x="112" y="424.0" text-anchor="end" fill="#94a3b8" font-size="10">8</text>
  <rect x="120.0" y="408.0" width="24.0" height="24.0" rx="3" ry="3" fill="#22c55e" />
  <rect x="146.0" y="408.0" width="24.0" height="24.0" rx="3" ry="3" fill="#22c55e" />
  <rect x="172.0" y="408.0" width="24.0" height="24.0" rx="3" ry="3" fill="#22c55e" />
  <rect x="198.0" y="408.0" width="24.0" height="24.0" rx="3" ry="3" fill="#22c55e" />
  <rect x="224.0" y="408.0" width="24.0" height="24.0" rx="3" ry="3" fill="#22c55e" />
  <rect x="250.0" y="408.0" width="24.0" height="24.0" rx="3" ry="3" fill="#22c55e" />
  <rect x="276.0" y="408.0" width="24.0" height="24.0" rx="3" ry="3" fill="#22c55e" />
  <rect x="302.0" y="408.0" width="24.0" height="24.0" rx="3" ry="3" fill="#22c55e" />
  <rect x="328.0" y="408.0" width="24.0" height="24.0" rx="3" ry="3" fill="#eab308" />
  <rect x="354.0" y="408.0" width="24.0" height="24.0" rx="3" ry="3" fill="#1e293b" />
  <rect x="380.0" y="408.0" width="24.0" height="24.0" rx="3" ry="3" fill="#1e293b" />
  <rect x="406.0" y="408.0" width="24.0" height="24.0" rx="3" ry="3" fill="#1e293b" />
  <rect x="432.0" y="408.0" width="24.0" height="24.0" rx="3" ry="3" fill="#1e293b" />
  <rect x="458.0" y="408.0" width="24.0" height="24.0" rx="3" ry="3" fill="#1e293b" />
  <rect x="484.0" y="408.0" width="24.0" height="24.0" rx="3" ry="3" fill="#1e293b" />
  <rect x="510.0" y="408.0" width="24.0" height="24.0" rx="3" ry="3" fill="#1e293b" />
  <text x="112" y="450.0" text-anchor="end" fill="#94a3b8" font-size="10">9</text>
  <rect x="120.0" y="434.0" width="24.0" height="24.0" rx="3" ry="3" fill="#22c55e" />
  <rect x="146.0" y="434.0" width="24.0" height="24.0" rx="3" ry="3" fill="#22c55e" />
  <rect x="172.0" y="434.0" width="24.0" height="24.0" rx="3" ry="3" fill="#22c55e" />
  <rect x="198.0" y="434.0" width="24.0" height="24.0" rx="3" ry="3" fill="#22c55e" />
  <rect x="224.0" y="434.0" width="24.0" height="24.0" rx="3" ry="3" fill="#22c55e" />
  <rect x="250.0" y="434.0" width="24.0" height="24.0" rx="3" ry="3" fill="#22c55e" />
  <rect x="276.0" y="434.0" width="24.0" height="24.0" rx="3" ry="3" fill="#22c55e" />
  <rect x="302.0" y="434.0" width="24.0" height="24.0" rx="3" ry="3" fill="#22c55e" />
  <rect x="328.0" y="434.0" width="24.0" height="24.0" rx="3" ry="3" fill="#eab308" />
  <rect x="354.0" y="434.0" width="24.0" height="24.0" rx="3" ry="3" fill="#eab308" />
  <rect x="380.0" y="434.0" width="24.0" height="24.0" rx="3" ry="3" fill="#1e293b" />
  <rect x="406.0" y="434.0" width="24.0" height="24.0" rx="3" ry="3" fill="#1e293b" />
  <rect x="432.0" y="434.0" width="24.0" height="24.0" rx="3" ry="3" fill="#1e293b" />
  <rect x="458.0" y="434.0" width="24.0" height="24.0" rx="3" ry="3" fill="#1e293b" />
  <rect x="484.0" y="434.0" width="24.0" height="24.0" rx="3" ry="3" fill="#1e293b" />
  <rect x="510.0" y="434.0" width="24.0" height="24.0" rx="3" ry="3" fill="#1e293b" />
  <text x="112" y="476.0" text-anchor="end" fill="#94a3b8" font-size="10">10</text>
  <rect x="120.0" y="460.0" width="24.0" height="24.0" rx="3" ry="3" fill="#22c55e" />
  <rect x="146.0" y="460.0" width="24.0" height="24.0" rx="3" ry="3" fill="#22c55e" />
  <rect x="172.0" y="460.0" width="24.0" height="24.0" rx="3" ry="3" fill="#22c55e" />
  <rect x="198.0" y="460.0" width="24.0" height="24.0" rx="3" ry="3" fill="#22c55e" />
  <rect x="224.0" y="460.0" width="24.0" height="24.0" rx="3" ry="3" fill="#ef4444" />
  <rect x="250.0" y="460.0" width="24.0" height="24.0" rx="3" ry="3" fill="#ef4444" />
  <rect x="276.0" y="460.0" width="24.0" height="24.0" rx="3" ry="3" fill="#ef4444" />
  <rect x="302.0" y="460.0" width="24.0" height="24.0" rx="3" ry="3" fill="#ef4444" />
  <rect x="328.0" y="460.0" width="24.0" height="24.0" rx="3" ry="3" fill="#eab308" />
  <rect x="354.0" y="460.0" width="24.0" height="24.0" rx="3" ry="3" fill="#eab308" />
  <rect x="380.0" y="460.0" width="24.0" height="24.0" rx="3" ry="3" fill="#eab308" />
  <rect x="406.0" y="460.0" width="24.0" height="24.0" rx="3" ry="3" fill="#1e293b" />
  <rect x="432.0" y="460.0" width="24.0" height="24.0" rx="3" ry="3" fill="#1e293b" />
  <rect x="458.0" y="460.0" width="24.0" height="24.0" rx="3" ry="3" fill="#1e293b" />
  <rect x="484.0" y="460.0" width="24.0" height="24.0" rx="3" ry="3" fill="#1e293b" />
  <rect x="510.0" y="460.0" width="24.0" height="24.0" rx="3" ry="3" fill="#1e293b" />
  <text x="112" y="502.0" text-anchor="end" fill="#94a3b8" font-size="10">11</text>
  <rect x="120.0" y="486.0" width="24.0" height="24.0" rx="3" ry="3" fill="#22c55e" />
  <rect x="146.0" y="486.0" width="24.0" height="24.0" rx="3" ry="3" fill="#22c55e" />
  <rect x="172.0" y="486.0" width="24.0" height="24.0" rx="3" ry="3" fill="#22c55e" />
  <rect x="198.0" y="486.0" width="24.0" height="24.0" rx="3" ry="3" fill="#22c55e" />
  <rect x="224.0" y="486.0" width="24.0" height="24.0" rx="3" ry="3" fill="#22c55e" />
  <rect x="250.0" y="486.0" width="24.0" height="24.0" rx="3" ry="3" fill="#22c55e" />
  <rect x="276.0" y="486.0" width="24.0" height="24.0" rx="3" ry="3" fill="#22c55e" />
  <rect x="302.0" y="486.0" width="24.0" height="24.0" rx="3" ry="3" fill="#22c55e" />
  <rect x="328.0" y="486.0" width="24.0" height="24.0" rx="3" ry="3" fill="#eab308" />
  <rect x="354.0" y="486.0" width="24.0" height="24.0" rx="3" ry="3" fill="#eab308" />
  <rect x="380.0" y="486.0" width="24.0" height="24.0" rx="3" ry="3" fill="#eab308" />
  <rect x="406.0" y="486.0" width="24.0" height="24.0" rx="3" ry="3" fill="#eab308" />
  <rect x="432.0" y="486.0" width="24.0" height="24.0" rx="3" ry="3" fill="#1e293b" />
  <rect x="458.0" y="486.0" width="24.0" height="24.0" rx="3" ry="3" fill="#1e293b" />
  <rect x="484.0" y="486.0" width="24.0" height="24.0" rx="3" ry="3" fill="#1e293b" />
  <rect x="510.0" y="486.0" width="24.0" height="24.0" rx="3" ry="3" fill="#1e293b" />
  <text x="112" y="528.0" text-anchor="end" fill="#94a3b8" font-size="10">12</text>
  <rect x="120.0" y="512.0" width="24.0" height="24.0" rx="3" ry="3" fill="#22c55e" />
  <rect x="146.0" y="512.0" width="24.0" height="24.0" rx="3" ry="3" fill="#22c55e" />
  <rect x="172.0" y="512.0" width="24.0" height="24.0" rx="3" ry="3" fill="#22c55e" />
  <rect x="198.0" y="512.0" width="24.0" height="24.0" rx="3" ry="3" fill="#22c55e" />
  <rect x="224.0" y="512.0" width="24.0" height="24.0" rx="3" ry="3" fill="#ef4444" />
  <rect x="250.0" y="512.0" width="24.0" height="24.0" rx="3" ry="3" fill="#ef4444" />
  <rect x="276.0" y="512.0" width="24.0" height="24.0" rx="3" ry="3" fill="#ef4444" />
  <rect x="302.0" y="512.0" width="24.0" height="24.0" rx="3" ry="3" fill="#ef4444" />
  <rect x="328.0" y="512.0" width="24.0" height="24.0" rx="3" ry="3" fill="#ef4444" />
  <rect x="354.0" y="512.0" width="24.0" height="24.0" rx="3" ry="3" fill="#ef4444" />
  <rect x="380.0" y="512.0" width="24.0" height="24.0" rx="3" ry="3" fill="#ef4444" />
  <rect x="406.0" y="512.0" width="24.0" height="24.0" rx="3" ry="3" fill="#ef4444" />
  <rect x="432.0" y="512.0" width="24.0" height="24.0" rx="3" ry="3" fill="#eab308" />
  <rect x="458.0" y="512.0" width="24.0" height="24.0" rx="3" ry="3" fill="#1e293b" />
  <rect x="484.0" y="512.0" width="24.0" height="24.0" rx="3" ry="3" fill="#1e293b" />
  <rect x="510.0" y="512.0" width="24.0" height="24.0" rx="3" ry="3" fill="#1e293b" />
  <text x="112" y="554.0" text-anchor="end" fill="#94a3b8" font-size="10">13</text>
  <rect x="120.0" y="538.0" width="24.0" height="24.0" rx="3" ry="3" fill="#22c55e" />
  <rect x="146.0" y="538.0" width="24.0" height="24.0" rx="3" ry="3" fill="#22c55e" />
  <rect x="172.0" y="538.0" width="24.0" height="24.0" rx="3" ry="3" fill="#22c55e" />
  <rect x="198.0" y="538.0" width="24.0" height="24.0" rx="3" ry="3" fill="#22c55e" />
  <rect x="224.0" y="538.0" width="24.0" height="24.0" rx="3" ry="3" fill="#ef4444" />
  <rect x="250.0" y="538.0" width="24.0" height="24.0" rx="3" ry="3" fill="#ef4444" />
  <rect x="276.0" y="538.0" width="24.0" height="24.0" rx="3" ry="3" fill="#ef4444" />
  <rect x="302.0" y="538.0" width="24.0" height="24.0" rx="3" ry="3" fill="#ef4444" />
  <rect x="328.0" y="538.0" width="24.0" height="24.0" rx="3" ry="3" fill="#ef4444" />
  <rect x="354.0" y="538.0" width="24.0" height="24.0" rx="3" ry="3" fill="#ef4444" />
  <rect x="380.0" y="538.0" width="24.0" height="24.0" rx="3" ry="3" fill="#ef4444" />
  <rect x="406.0" y="538.0" width="24.0" height="24.0" rx="3" ry="3" fill="#ef4444" />
  <rect x="432.0" y="538.0" width="24.0" height="24.0" rx="3" ry="3" fill="#eab308" />
  <rect x="458.0" y="538.0" width="24.0" height="24.0" rx="3" ry="3" fill="#eab308" />
  <rect x="484.0" y="538.0" width="24.0" height="24.0" rx="3" ry="3" fill="#1e293b" />
  <rect x="510.0" y="538.0" width="24.0" height="24.0" rx="3" ry="3" fill="#1e293b" />
  <text x="112" y="580.0" text-anchor="end" fill="#94a3b8" font-size="10">14</text>
  <rect x="120.0" y="564.0" width="24.0" height="24.0" rx="3" ry="3" fill="#22c55e" />
  <rect x="146.0" y="564.0" width="24.0" height="24.0" rx="3" ry="3" fill="#22c55e" />
  <rect x="172.0" y="564.0" width="24.0" height="24.0" rx="3" ry="3" fill="#22c55e" />
  <rect x="198.0" y="564.0" width="24.0" height="24.0" rx="3" ry="3" fill="#22c55e" />
  <rect x="224.0" y="564.0" width="24.0" height="24.0" rx="3" ry="3" fill="#ef4444" />
  <rect x="250.0" y="564.0" width="24.0" height="24.0" rx="3" ry="3" fill="#ef4444" />
  <rect x="276.0" y="564.0" width="24.0" height="24.0" rx="3" ry="3" fill="#ef4444" />
  <rect x="302.0" y="564.0" width="24.0" height="24.0" rx="3" ry="3" fill="#ef4444" />
  <rect x="328.0" y="564.0" width="24.0" height="24.0" rx="3" ry="3" fill="#ef4444" />
  <rect x="354.0" y="564.0" width="24.0" height="24.0" rx="3" ry="3" fill="#ef4444" />
  <rect x="380.0" y="564.0" width="24.0" height="24.0" rx="3" ry="3" fill="#ef4444" />
  <rect x="406.0" y="564.0" width="24.0" height="24.0" rx="3" ry="3" fill="#ef4444" />
  <rect x="432.0" y="564.0" width="24.0" height="24.0" rx="3" ry="3" fill="#eab308" />
  <rect x="458.0" y="564.0" width="24.0" height="24.0" rx="3" ry="3" fill="#eab308" />
  <rect x="484.0" y="564.0" width="24.0" height="24.0" rx="3" ry="3" fill="#eab308" />
  <rect x="510.0" y="564.0" width="24.0" height="24.0" rx="3" ry="3" fill="#1e293b" />
  <text x="112" y="606.0" text-anchor="end" fill="#94a3b8" font-size="10">15</text>
  <rect x="120.0" y="590.0" width="24.0" height="24.0" rx="3" ry="3" fill="#ef4444" />
  <rect x="146.0" y="590.0" width="24.0" height="24.0" rx="3" ry="3" fill="#ef4444" />
  <rect x="172.0" y="590.0" width="24.0" height="24.0" rx="3" ry="3" fill="#ef4444" />
  <rect x="198.0" y="590.0" width="24.0" height="24.0" rx="3" ry="3" fill="#ef4444" />
  <rect x="224.0" y="590.0" width="24.0" height="24.0" rx="3" ry="3" fill="#22c55e" />
  <rect x="250.0" y="590.0" width="24.0" height="24.0" rx="3" ry="3" fill="#22c55e" />
  <rect x="276.0" y="590.0" width="24.0" height="24.0" rx="3" ry="3" fill="#22c55e" />
  <rect x="302.0" y="590.0" width="24.0" height="24.0" rx="3" ry="3" fill="#22c55e" />
  <rect x="328.0" y="590.0" width="24.0" height="24.0" rx="3" ry="3" fill="#ef4444" />
  <rect x="354.0" y="590.0" width="24.0" height="24.0" rx="3" ry="3" fill="#ef4444" />
  <rect x="380.0" y="590.0" width="24.0" height="24.0" rx="3" ry="3" fill="#ef4444" />
  <rect x="406.0" y="590.0" width="24.0" height="24.0" rx="3" ry="3" fill="#ef4444" />
  <rect x="432.0" y="590.0" width="24.0" height="24.0" rx="3" ry="3" fill="#eab308" />
  <rect x="458.0" y="590.0" width="24.0" height="24.0" rx="3" ry="3" fill="#eab308" />
  <rect x="484.0" y="590.0" width="24.0" height="24.0" rx="3" ry="3" fill="#eab308" />
  <rect x="510.0" y="590.0" width="24.0" height="24.0" rx="3" ry="3" fill="#eab308" />
  <rect x="118.5" y="200.0" width="3" height="416.0" fill="#e2e8f0" />
  <rect x="120.0" y="198.5" width="416.0" height="3" fill="#e2e8f0" />
  <rect x="222.5" y="200.0" width="3" height="416.0" fill="#e2e8f0" />
  <rect x="120.0" y="302.5" width="416.0" height="3" fill="#e2e8f0" />
  <rect x="326.5" y="200.0" width="3" height="416.0" fill="#e2e8f0" />
  <rect x="120.0" y="406.5" width="416.0" height="3" fill="#e2e8f0" />
  <rect x="430.5" y="200.0" width="3" height="416.0" fill="#e2e8f0" />
  <rect x="120.0" y="510.5" width="416.0" height="3" fill="#e2e8f0" />
  <rect x="534.5" y="200.0" width="3" height="416.0" fill="#e2e8f0" />
  <rect x="120.0" y="614.5" width="416.0" height="3" fill="#e2e8f0" />
  <text x="172.0" y="114" text-anchor="middle" fill="#cbd5e1" font-size="10" font-weight="600">key blk 0</text>
  <text x="276.0" y="114" text-anchor="middle" fill="#cbd5e1" font-size="10" font-weight="600">key blk 1</text>
  <text x="380.0" y="114" text-anchor="middle" fill="#cbd5e1" font-size="10" font-weight="600">key blk 2</text>
  <text x="484.0" y="114" text-anchor="middle" fill="#cbd5e1" font-size="10" font-weight="600">key blk 3</text>
  <rect x="120" y="648.0" width="14" height="14" rx="3" ry="3" fill="#22c55e" />
  <text x="140" y="660.0" fill="#f8fafc">attended — top-k selected key block</text>
  <rect x="120" y="672.0" width="14" height="14" rx="3" ry="3" fill="#eab308" />
  <text x="140" y="684.0" fill="#f8fafc">attended — always-on local window block</text>
  <rect x="120" y="696.0" width="14" height="14" rx="3" ry="3" fill="#1e293b" />
  <text x="140" y="708.0" fill="#f8fafc">masked — not causally ready</text>
  <rect x="120" y="720.0" width="14" height="14" rx="3" ry="3" fill="#ef4444" />
  <text x="140" y="732.0" fill="#f8fafc">indexer-masked — block not in top-k ∪ local</text>
  <text x="120" y="768.0" fill="#94a3b8" font-size="11" font-weight="600">How the mask is built</text>
  <text x="120" y="786.0" fill="#f8fafc" font-size="11">1. score every key per (head, query), max-pool over the keys in each block → one score per KEY BLOCK</text>
  <text x="120" y="804.0" fill="#f8fafc" font-size="11">2. per query keep top-k key blocks ∪ the always-on local window block, under block-level causality</text>
  <text x="120" y="822.0" fill="#f8fafc" font-size="11">3. broadcast the per-block 0/-inf verdict back onto every key in the block (block granularity)</text>
  <text x="120" y="840.0" fill="#f8fafc" font-size="11">4. re-apply token-level causality inside the diagonal block (green/yellow stops at the query, k≤q)</text>
</svg>