<?xml version="1.0" encoding="UTF-8"?>
<svg width="95px" height="88px" viewBox="0 0 95 88" version="1.1" xmlns="http://www.w3.org/2000/svg" xmlns:xlink="http://www.w3.org/1999/xlink">
    <!-- Generator: Sketch 43.2 (39069) - http://www.bohemiancoding.com/sketch -->
    <title>icon</title>
    <desc>Created with Sketch.</desc>
    <defs>
        <path d="M13,14.7890193 C22.8284801,14.7890193 26,6.02605902 26,1.5261751 C26,-0.812484109 24.4279133,-0.0763570998 21.9099482,1.17020987 C19.5830216,2.32219957 16.4482998,3.91011313 13,3.91011313 C5.82029825,3.91011313 0,-2.97370882 0,1.5261751 C0,6.02605902 3.17151989,14.7890193 13,14.7890193 Z" id="path-1"></path>
    </defs>
    <g id="Page-1" stroke="none" stroke-width="1" fill="none" fill-rule="evenodd">
        <g id="icon_desktop">
            <g id="icon">
                <g id="icon_desktop">
                    <g id="Group-2">
                        <g id="Group">
                            <path d="M93.7930402,70.08 C94.5430402,72.24 94.3630402,74.54 93.3630402,76.54 C92.6430402,78 91.6130402,79.13 90.3530402,80.14 C88.8330402,81.34 86.9430402,82.36 84.6630402,83.34 C81.9430402,84.5 78.6230402,85.59 77.1030402,85.99 C73.2130402,87 69.4730402,87.64 65.6830402,87.67 C60.2630402,87.72 55.5930402,86.44 52.2730402,83.17 C50.5530402,83.38 48.8130402,83.5 47.0630402,83.5 C45.4030402,83.5 43.7630402,83.4 42.1330402,83.2 C38.8030402,86.45 34.1530402,87.72 28.7530402,87.67 C24.9630402,87.64 21.2230402,87 17.3230402,85.99 C15.8130402,85.59 12.4930402,84.5 9.77304019,83.34 C7.49304019,82.36 5.60304019,81.34 4.09304019,80.14 C2.82304019,79.13 1.79304019,78 1.07304019,76.54 C0.0830401858,74.54 -0.106959814,72.24 0.653040186,70.08 C-0.0469598142,68.43 -0.226959814,66.54 0.323040186,64.45 C0.573040186,63.5 0.983040186,62.62 1.50304019,61.84 C1.39304019,61.43 1.30304019,61.01 1.24304019,60.55 C0.863040186,57.81 1.81304019,55.31 3.60304019,53.37 C4.48304019,52.4 5.43304019,51.73 6.42304019,51.3 C5.69304019,48.2 5.31304019,45.01 5.31304019,41.75 C5.31304019,18.69 24.0030402,0 47.0630402,0 C54.9830402,0 62.3930402,2.2 68.7130402,6.04 C69.8530402,6.74 70.9730402,7.49 72.0430402,8.29 C72.5730402,8.69 73.1030402,9.1 73.6130402,9.53 C74.1330402,9.95 74.6430402,10.39 75.1330402,10.84 C76.6130402,12.19 78.0030402,13.64 79.2730402,15.19 C79.7030402,15.7 80.1130402,16.23 80.5130402,16.77 C81.3230402,17.84 82.0730402,18.95 82.7630402,20.1 C83.8130402,21.82 84.7330402,23.62 85.5330402,25.49 C86.0630402,26.74 86.5230402,28.02 86.9330402,29.33 C87.5430402,31.29 88.0130402,33.31 88.3330402,35.39 C88.4330402,36.08 88.5230402,36.78 88.5930402,37.48 C88.7330402,38.88 88.8130402,40.3 88.8130402,41.75 C88.8130402,44.97 88.4330402,48.13 87.7230402,51.18 C88.8230402,51.61 89.8630402,52.31 90.8330402,53.37 C92.6230402,55.31 93.5730402,57.82 93.1930402,60.56 C93.1330402,61.01 93.0430402,61.43 92.9330402,61.84 C93.4530402,62.62 93.8630402,63.5 94.1130402,64.45 C94.6630402,66.54 94.4830402,68.43 93.7930402,70.08" id="Fill-1" fill="#FFFFFF" fill-rule="nonzero"></path>
                            <circle id="Oval" fill="#FFD21E" fill-rule="nonzero" cx="46.75" cy="41.75" r="34.75"></circle>
                            <path d="M81.5,41.75 C81.5,22.5581049 65.9418951,7 46.75,7 C27.5581049,7 12,22.5581049 12,41.75 C12,60.9418951 27.5581049,76.5 46.75,76.5 C65.9418951,76.5 81.5,60.9418951 81.5,41.75 Z M8,41.75 C8,20.3489659 25.3489659,3 46.75,3 C68.1510341,3 85.5,20.3489659 85.5,41.75 C85.5,63.1510341 68.1510341,80.5 46.75,80.5 C25.3489659,80.5 8,63.1510341 8,41.75 Z" id="Oval" fill="#FFAC03" fill-rule="nonzero"></path>
                            <path d="M57.1723547,31.7151181 C58.0863134,32.7107502 57.3040427,35.2620959 58.7620957,35.2620959 C61.5235194,35.2620959 63.7620957,33.0235196 63.7620957,30.2620959 C63.7620957,27.5006721 61.5235194,25.2620959 58.7620957,25.2620959 C56.0006719,25.2620959 53.7620957,27.5006721 53.7620957,30.2620959 C53.7620957,31.5654666 56.3553563,30.8251108 57.1723547,31.7151181 Z" id="Oval-2" fill="#3A3B45" fill-rule="nonzero" transform="translate(58.762096, 30.262096) rotate(-28.000000) translate(-58.762096, -30.262096) "></path>
                            <path d="M32.1723553,31.7151181 C33.086314,32.7107502 32.3040433,35.2620959 33.7620963,35.2620959 C36.52352,35.2620959 38.7620963,33.0235196 38.7620963,30.2620959 C38.7620963,27.5006721 36.52352,25.2620959 33.7620963,25.2620959 C31.0006725,25.2620959 28.7620963,27.5006721 28.7620963,30.2620959 C28.7620963,31.5654666 31.3553569,30.8251108 32.1723553,31.7151181 Z" id="Oval-2" fill="#3A3B45" fill-rule="nonzero" transform="translate(33.762096, 30.262096) scale(-1, 1) rotate(-28.000000) translate(-33.762096, -30.262096) "></path>
                            <g id="Oval-4" transform="translate(33.500000, 41.500000)">
                                <g id="Mask" fill-rule="nonzero" fill="#3A3B45">
                                    <path d="M13,14.7890193 C22.8284801,14.7890193 26,6.02605902 26,1.5261751 C26,-0.812484109 24.4279133,-0.0763570998 21.9099482,1.17020987 C19.5830216,2.32219957 16.4482998,3.91011313 13,3.91011313 C5.82029825,3.91011313 0,-2.97370882 0,1.5261751 C0,6.02605902 3.17151989,14.7890193 13,14.7890193 Z" id="path-1"></path>
                                </g>
                                <g id="Clipped">
                                    <mask id="mask-2" fill="white">
                                        <use xlink:href="#path-1"></use>
                                    </mask>
                                    <g id="path-1"></g>
                                    <path d="M13.25,25 C18.0399291,25 21.9229338,21.1169953 21.9229338,16.3270662 C21.9229338,12.5962324 19.5672252,9.41560375 16.2620987,8.19147116 C16.1404592,8.14641904 16.0175337,8.10401696 15.8933923,8.06433503 C15.0599892,7.79793679 14.1717882,10.6623144 13.25,10.6623144 C12.3886883,10.6623144 11.5567012,7.77968641 10.7713426,8.01349068 C7.18916268,9.07991937 4.57706621,12.3984489 4.57706621,16.3270662 C4.57706621,21.1169953 8.46007093,25 13.25,25 Z" id="Shape" fill="#EF4E4E" fill-rule="nonzero" mask="url(#mask-2)"></path>
                                </g>
                            </g>
                            <circle id="Oval-3" fill="#FFD21E" fill-rule="nonzero" style="mix-blend-mode: multiply;" cx="70.25" cy="33.75" r="3.25"></circle>
                            <circle id="Oval-3" fill="#FFD21E" fill-rule="nonzero" style="mix-blend-mode: multiply;" cx="23.75" cy="33.75" r="3.25"></circle>
                        </g>
                    </g>
                </g>
                <g id="Group-4" transform="translate(3.000000, 48.000000)" fill-rule="nonzero">
                    <path d="M14.0619453,0 L14.0619453,0 C12.4429453,0 10.9959453,0.665 9.98694534,1.871 C9.36294534,2.618 8.71094534,3.822 8.65794534,5.625 C7.97894534,5.43 7.32594534,5.321 6.71594534,5.321 C5.16594534,5.321 3.76594534,5.915 2.77594534,6.994 C1.50394534,8.379 0.938945345,10.081 1.18494534,11.784 C1.30194534,12.595 1.57294534,13.322 1.97794534,13.995 C1.12394534,14.686 0.494945345,15.648 0.190945345,16.805 C-0.0470546551,17.712 -0.291054655,19.601 0.982945345,21.547 C0.901945345,21.674 0.825945345,21.806 0.754945345,21.941 C-0.0110546551,23.395 -0.0600546551,25.038 0.615945345,26.568 C1.64094534,28.887 4.18794534,30.714 9.13394534,32.675 C12.2109453,33.895 15.0259453,34.675 15.0509453,34.682 C19.1189453,35.737 22.7979453,36.273 25.9829453,36.273 C31.8369453,36.273 36.0279453,34.48 38.4399453,30.944 C42.3219453,25.25 41.7669453,20.042 36.7439453,15.022 C33.9639453,12.244 32.1159453,8.148 31.7309453,7.249 C30.9549453,4.587 28.9029453,1.628 25.4919453,1.628 L25.4909453,1.628 C25.2039453,1.628 24.9139453,1.651 24.6279453,1.696 C23.1339453,1.931 21.8279453,2.791 20.8949453,4.085 C19.8879453,2.833 18.9099453,1.837 18.0249453,1.275 C16.6909453,0.429 15.3579453,0 14.0619453,0 M14.0619453,4 C14.5719453,4 15.1949453,4.217 15.8819453,4.653 C18.0149453,6.006 22.1309453,13.081 23.6379453,15.833 C24.1429453,16.755 25.0059453,17.145 25.7829453,17.145 C27.3249453,17.145 28.5289453,15.612 25.9239453,13.664 C22.0069453,10.733 23.3809453,5.942 25.2509453,5.647 C25.3329453,5.634 25.4139453,5.628 25.4919453,5.628 C27.1919453,5.628 27.9419453,8.558 27.9419453,8.558 C27.9419453,8.558 30.1399453,14.078 33.9159453,17.851 C37.6919453,21.625 37.8869453,24.654 35.1349453,28.69 C33.2579453,31.442 29.6649453,32.273 25.9829453,32.273 C22.1639453,32.273 18.2489453,31.379 16.0549453,30.81 C15.9469453,30.782 2.60394534,27.013 4.29394534,23.805 C4.57794534,23.266 5.04594534,23.05 5.63494534,23.05 C8.01494534,23.05 12.3439453,26.592 14.2049453,26.592 C14.6209453,26.592 14.9139453,26.415 15.0339453,25.983 C15.8269453,23.138 2.97694534,21.942 4.05994534,17.821 C4.25094534,17.092 4.76894534,16.796 5.49694534,16.797 C8.64194534,16.797 15.6979453,22.328 17.1769453,22.328 C17.2899453,22.328 17.3709453,22.295 17.4149453,22.225 C18.1559453,21.029 17.7499453,20.194 12.5269453,17.033 C7.30394534,13.871 3.63794534,11.969 5.72294534,9.699 C5.96294534,9.437 6.30294534,9.321 6.71594534,9.321 C9.88694534,9.322 17.3789453,16.14 17.3789453,16.14 C17.3789453,16.14 19.4009453,18.243 20.6239453,18.243 C20.9049453,18.243 21.1439453,18.132 21.3059453,17.858 C22.1729453,16.396 13.2529453,9.636 12.7499453,6.847 C12.4089453,4.957 12.9889453,4 14.0619453,4" id="Fill-1" fill="#FFAC03"></path>
                    <path d="M35.1348,28.6899 C37.8868,24.6539 37.6918,21.6249 33.9158,17.8509 C30.1398,14.0779 27.9418,8.5579 27.9418,8.5579 C27.9418,8.5579 27.1208,5.3519 25.2508,5.6469 C23.3808,5.9419 22.0078,10.7329 25.9248,13.6639 C29.8418,16.5939 25.1448,18.5849 23.6378,15.8329 C22.1308,13.0809 18.0158,6.0059 15.8818,4.6529 C13.7488,3.2999 12.2468,4.0579 12.7498,6.8469 C13.2528,9.6359 22.1738,16.3959 21.3058,17.8589 C20.4378,19.3209 17.3788,16.1399 17.3788,16.1399 C17.3788,16.1399 7.8068,7.4289 5.7228,9.6989 C3.6388,11.9689 7.3038,13.8709 12.5268,17.0329 C17.7508,20.1939 18.1558,21.0289 17.4148,22.2249 C16.6728,23.4209 5.1428,13.6999 4.0598,17.8209 C2.9778,21.9419 15.8268,23.1379 15.0338,25.9829 C14.2408,28.8289 5.9828,20.5979 4.2938,23.8049 C2.6038,27.0129 15.9468,30.7819 16.0548,30.8099 C20.3648,31.9279 31.3108,34.2969 35.1348,28.6899" id="Fill-4" fill="#FFD21E"></path>
                </g>
                <g id="Group-4" transform="translate(70.500000, 66.500000) scale(-1, 1) translate(-70.500000, -66.500000) translate(50.000000, 48.000000)" fill-rule="nonzero">
                    <path d="M14.0619453,0 L14.0619453,0 C12.4429453,0 10.9959453,0.665 9.98694534,1.871 C9.36294534,2.618 8.71094534,3.822 8.65794534,5.625 C7.97894534,5.43 7.32594534,5.321 6.71594534,5.321 C5.16594534,5.321 3.76594534,5.915 2.77594534,6.994 C1.50394534,8.379 0.938945345,10.081 1.18494534,11.784 C1.30194534,12.595 1.57294534,13.322 1.97794534,13.995 C1.12394534,14.686 0.494945345,15.648 0.190945345,16.805 C-0.0470546551,17.712 -0.291054655,19.601 0.982945345,21.547 C0.901945345,21.674 0.825945345,21.806 0.754945345,21.941 C-0.0110546551,23.395 -0.0600546551,25.038 0.615945345,26.568 C1.64094534,28.887 4.18794534,30.714 9.13394534,32.675 C12.2109453,33.895 15.0259453,34.675 15.0509453,34.682 C19.1189453,35.737 22.7979453,36.273 25.9829453,36.273 C31.8369453,36.273 36.0279453,34.48 38.4399453,30.944 C42.3219453,25.25 41.7669453,20.042 36.7439453,15.022 C33.9639453,12.244 32.1159453,8.148 31.7309453,7.249 C30.9549453,4.587 28.9029453,1.628 25.4919453,1.628 L25.4909453,1.628 C25.2039453,1.628 24.9139453,1.651 24.6279453,1.696 C23.1339453,1.931 21.8279453,2.791 20.8949453,4.085 C19.8879453,2.833 18.9099453,1.837 18.0249453,1.275 C16.6909453,0.429 15.3579453,0 14.0619453,0 M14.0619453,4 C14.5719453,4 15.1949453,4.217 15.8819453,4.653 C18.0149453,6.006 22.1309453,13.081 23.6379453,15.833 C24.1429453,16.755 25.0059453,17.145 25.7829453,17.145 C27.3249453,17.145 28.5289453,15.612 25.9239453,13.664 C22.0069453,10.733 23.3809453,5.942 25.2509453,5.647 C25.3329453,5.634 25.4139453,5.628 25.4919453,5.628 C27.1919453,5.628 27.9419453,8.558 27.9419453,8.558 C27.9419453,8.558 30.1399453,14.078 33.9159453,17.851 C37.6919453,21.625 37.8869453,24.654 35.1349453,28.69 C33.2579453,31.442 29.6649453,32.273 25.9829453,32.273 C22.1639453,32.273 18.2489453,31.379 16.0549453,30.81 C15.9469453,30.782 2.60394534,27.013 4.29394534,23.805 C4.57794534,23.266 5.04594534,23.05 5.63494534,23.05 C8.01494534,23.05 12.3439453,26.592 14.2049453,26.592 C14.6209453,26.592 14.9139453,26.415 15.0339453,25.983 C15.8269453,23.138 2.97694534,21.942 4.05994534,17.821 C4.25094534,17.092 4.76894534,16.796 5.49694534,16.797 C8.64194534,16.797 15.6979453,22.328 17.1769453,22.328 C17.2899453,22.328 17.3709453,22.295 17.4149453,22.225 C18.1559453,21.029 17.7499453,20.194 12.5269453,17.033 C7.30394534,13.871 3.63794534,11.969 5.72294534,9.699 C5.96294534,9.437 6.30294534,9.321 6.71594534,9.321 C9.88694534,9.322 17.3789453,16.14 17.3789453,16.14 C17.3789453,16.14 19.4009453,18.243 20.6239453,18.243 C20.9049453,18.243 21.1439453,18.132 21.3059453,17.858 C22.1729453,16.396 13.2529453,9.636 12.7499453,6.847 C12.4089453,4.957 12.9889453,4 14.0619453,4" id="Fill-1" fill="#FFAC03"></path>
                    <path d="M35.1348,28.6899 C37.8868,24.6539 37.6918,21.6249 33.9158,17.8509 C30.1398,14.0779 27.9418,8.5579 27.9418,8.5579 C27.9418,8.5579 27.1208,5.3519 25.2508,5.6469 C23.3808,5.9419 22.0078,10.7329 25.9248,13.6639 C29.8418,16.5939 25.1448,18.5849 23.6378,15.8329 C22.1308,13.0809 18.0158,6.0059 15.8818,4.6529 C13.7488,3.2999 12.2468,4.0579 12.7498,6.8469 C13.2528,9.6359 22.1738,16.3959 21.3058,17.8589 C20.4378,19.3209 17.3788,16.1399 17.3788,16.1399 C17.3788,16.1399 7.8068,7.4289 5.7228,9.6989 C3.6388,11.9689 7.3038,13.8709 12.5268,17.0329 C17.7508,20.1939 18.1558,21.0289 17.4148,22.2249 C16.6728,23.4209 5.1428,13.6999 4.0598,17.8209 C2.9778,21.9419 15.8268,23.1379 15.0338,25.9829 C14.2408,28.8289 5.9828,20.5979 4.2938,23.8049 C2.6038,27.0129 15.9468,30.7819 16.0548,30.8099 C20.3648,31.9279 31.3108,34.2969 35.1348,28.6899" id="Fill-4" fill="#FFD21E"></path>
                </g>
            </g>
        </g>
    </g>
</svg>